<?xml version="1.0" encoding="utf-8"?>
<!-- Generator: Adobe Illustrator 25.0.0, SVG Export Plug-In . SVG Version: 6.00 Build 0)  -->
<svg version="1.1" id="Calque_1" xmlns="http://www.w3.org/2000/svg" xmlns:xlink="http://www.w3.org/1999/xlink" x="0px" y="0px"
	 viewBox="0 0 595.28 841.89" style="enable-background:new 0 0 595.28 841.89;" xml:space="preserve">
<path d="M284.96,336.7c14.2,0,28.4,0.03,42.59-0.02c3.79-0.01,6.45,1.7,7.99,5.02c0.59,1.28,0.82,2.84,0.83,4.27
	c0.05,18.8,0.04,37.59,0.04,56.39c0,9.4,0.05,18.8-0.08,28.2c-0.05,3.46-1.69,6.23-4.88,7.79c-1.07,0.52-2.36,0.82-3.55,0.82
	c-28.68,0.04-57.35,0.02-86.03,0.05c-3.09,0-7.07-2.41-7.87-6.01c-0.27-1.23-0.52-2.5-0.52-3.76c-0.04-27.84-0.05-55.67-0.08-83.51
	c0-3.2,1.06-5.84,3.69-7.76c1.39-1.01,2.92-1.52,4.68-1.51c7.2,0.03,14.4,0.01,21.6,0.01C270.57,336.7,277.76,336.7,284.96,336.7z
	 M248.82,389.75c-0.69,0.03-1.6-0.21-2.03,0.14c-2.81,2.33-5.61,4.65-7.17,8.17c-1.24,2.8-1.02,5.31,0.96,7.43
	c2.83,3.03,6.46,4.74,10.61,5.2c5.33,0.6,10.25-1.02,14.81-3.4c3.79-1.98,7.19-4.68,10.77-7.06c0.27-0.18,0.59-0.3,0.89-0.45
	c0.07,0.09,0.13,0.19,0.2,0.28c-0.77,0.94-1.63,1.81-2.28,2.82c-1.08,1.66-2.18,3.34-2.99,5.14c-0.88,1.98,0.41,3.97,2.55,3.78
	c3.44-0.29,6.89-0.76,10.27-1.47c2.86-0.6,5.65-1.61,8.44-2.51c2.08-0.68,4.16-1.4,6.17-2.25c2.86-1.21,5.67-2.51,8.46-3.87
	c0.98-0.48,1.97-1.11,2.66-1.92c0.35-0.41,0.28-1.46,0.02-2.06c-0.3-0.7-1.04-0.44-1.68-0.16c-2.73,1.19-5.44,2.47-8.24,3.48
	c-2.8,1.01-5.68,1.82-8.57,2.52c-1.6,0.39-3.31,0.56-4.96,0.5c-1.46-0.06-3.28-0.14-3.87-1.8c-0.42-1.19-0.2-2.62-0.2-3.94
	c0-0.94,0.4-1.96,0.13-2.79c-0.46-1.44-0.38-1.82,1.18-1.85c1.08-0.02,2.15,0.15,3.23,0.15c12.36,0,24.71-0.01,37.07-0.06
	c1.35,0,2.71-0.17,4.05-0.39c1.12-0.18,1.7-0.89,1.63-2.12c-0.08-1.4-0.04-2.8-0.06-4.2c-0.04-2.35-0.95-3.26-3.28-3.27
	c-4.12-0.01-8.24,0.01-12.36-0.01c-1.76-0.01-3.52-0.04-5.28-0.14c-1.47-0.09-1.98-0.67-2.03-2.13c-0.01-0.36,0-0.72,0-1.08
	c-0.01-1.11,0.46-1.68,1.66-1.68c3.2,0.02,6.4-0.02,9.6-0.05c1.56-0.02,2.28-0.7,2.1-2.23c-0.23-1.94-0.53-3.89-1.06-5.76
	c-0.18-0.64-1.11-1.47-1.75-1.51c-3.94-0.29-7.9-0.6-11.83-0.44c-2.36,0.09-4.21,1.97-3.33,4.79c0.59,1.89,0.84,3.89,1.26,5.84
	c0.52,2.45,0.99,4.92,1.62,7.34c0.41,1.58,0.24,2.01-1.38,1.99c-3.64-0.05-7.28-0.1-10.91-0.24c-0.98-0.04-1.97-0.33-2.93-0.58
	c-0.93-0.25-0.98-0.74-0.36-1.48c4.7-5.56,8.38-11.82,12-18.1c0.29-0.5,0.39-1.13,0.45-1.71c0.27-2.46-1.21-4.22-2.59-5.96
	c-1.25-1.58-2.65-3-4.9-3.07c-0.18-0.01-0.57-0.69-0.48-0.86c0.52-1.04,0.15-1.81-0.49-2.63c-2.49-3.2-5.04-6.37-7.39-9.67
	c-1.33-1.86-3.96-2.32-5.72-1.3c-1.41,0.82-2.8,1.67-4.2,2.5c-2.47,1.46-5.05,2.75-7.38,4.4c-4.26,3.01-8.51,6.06-12.51,9.39
	c-4.86,4.05-9.01,8.74-11.74,14.58c-1.33,2.83-1.43,5.7-1.04,8.66c0.11,0.87,0.52,1.77,0.99,2.52c0.99,1.58,2.11,3.06,3.18,4.59
	L248.82,389.75z M267.43,424.25c-0.11,0.05-0.22,0.1-0.32,0.15c-0.39-0.33-0.79-0.63-1.16-0.98c-1.9-1.82-3.82-3.62-5.69-5.48
	c-2.19-2.17-4.41-1.44-6.19,0.04c-0.51,0.42-0.68,1.51-0.6,2.24c0.04,0.37,0.95,0.79,1.52,0.94c0.93,0.23,1.38,0.76,1.44,1.65
	c0.06,0.8,0.03,1.6,0.03,2.4c-0.02,2.48-0.07,4.95-0.05,7.43c0.01,1.21,0.8,1.79,1.76,1.39c2.46-1.02,3.35-2.39,3.32-5.07
	c-0.01-0.78,0-1.56,0-2.58c0.55,0.41,1.03,0.63,1.34,1c1.4,1.72,2.8,3.45,4.11,5.24c0.98,1.34,2.14,1.87,3.06,1.16
	c1.18-0.92,2.02-2.11,2.06-3.63c0.12-3.83,0.17-7.66,0.22-11.5c0.01-0.35-0.09-0.71-0.18-1.06c-0.25-0.97-0.98-1.11-1.78-0.9
	c-1.63,0.43-3.15,2.56-3.09,4.27C267.28,422.06,267.37,423.15,267.43,424.25z M253.16,431.65c-0.29-0.51-0.48-0.93-0.74-1.3
	c-0.43-0.62-1.03-1.15-1.33-1.82c-1.55-3.45-3.03-6.92-4.55-10.39c-0.74-1.7-2.13-2.24-3.56-1.06c-1.06,0.87-1.92,2.11-2.53,3.35
	c-0.97,1.95-1.61,4.06-2.47,6.08c-0.76,1.8-1.69,3.53-2.4,5.34c-0.21,0.54-0.17,1.43,0.16,1.85c0.27,0.35,1.22,0.48,1.71,0.3
	c1.31-0.49,2.55-1.2,2.93-2.74c0.22-0.9,0.74-1.19,1.68-1.06c0.86,0.13,1.77,0.15,2.62,0.01c0.92-0.15,1.38,0.19,1.84,0.92
	c0.55,0.87,1.19,1.7,1.9,2.44c0.83,0.87,1.86,0.85,2.78,0.09c0.37-0.3,0.79-0.55,1.12-0.89
	C252.63,432.48,252.85,432.08,253.16,431.65z M292.23,430.28c-0.03,0-0.05,0-0.08,0.01c0.07,0.87,0.07,1.76,0.24,2.61
	c0.25,1.27,1.11,1.55,2.21,0.92c1.91-1.09,3.05-2.51,2.5-4.87c-0.18-0.78,0.14-1.17,1.05-1.33c1.84-0.31,3.33-1.31,4.25-2.97
	c0.67-1.22,0.17-2.04-1.22-2.06c-1.04-0.01-2.08,0.09-3.11,0.05c-0.31-0.01-0.61-0.33-0.92-0.5c0.29-0.28,0.54-0.62,0.88-0.82
	c0.21-0.12,0.55-0.06,0.82-0.03c2.13,0.23,3.53-1.03,4.77-2.46c0.34-0.39,0.44-1.23,0.27-1.75c-0.11-0.33-0.9-0.61-1.39-0.61
	c-2.83,0-5.67,0.03-8.5,0.18c-1.67,0.08-2.83,1.11-3.68,2.52c-0.61,1.02-0.31,1.57,0.74,1.96c1.18,0.44,1.44,1.09,0.89,2.21
	c-0.23,0.48-0.63,0.91-1.04,1.26c-1.05,0.9-0.87,2.1,0.33,2.7c0.44,0.22,0.79,0.82,0.95,1.33
	C292.36,429.13,292.23,429.72,292.23,430.28z M315.3,416.49c-3.67-0.12-6.26,1.85-8.29,4.08c-1.95,2.14-2.84,4.72-1.53,7.61
	c0.43,0.94,0.87,1.89,1.46,2.73c2.53,3.61,6.78,4.8,10.59,1.94c0.7-0.53,1.19-1.3,0.75-2.05c-0.28-0.48-1.17-0.92-1.75-0.87
	c-4.56,0.35-6.48-3.54-6.19-7.1c0.16-2.05,1.3-2.7,3.11-1.74c2.15,1.14,3.02,0.6,4.93-1.15c0.71-0.65,0.6-1.46,0.13-2.28
	C317.73,416.28,316.37,416.7,315.3,416.49z M328.45,434.44c2.05-0.03,3.64-0.55,4.87-1.79c0.43-0.43,0.73-1.33,0.58-1.88
	c-0.11-0.41-1.05-0.85-1.61-0.83c-4.53,0.2-6.41-3.16-6.31-6.79c0.06-2.3,1.29-3.05,3.31-1.97c1.59,0.85,2.81,0.37,4.05-0.57
	c0.8-0.61,1.41-1.37,1.07-2.45c-0.32-1.04-1.2-1.4-2.2-1.58c-3.89-0.67-6.82,1.18-9.32,3.78c-0.95,0.99-1.76,2.35-2.05,3.67
	c-0.75,3.35,0.88,6.05,3.08,8.38C325.19,433.76,326.89,434.38,328.45,434.44z M280.03,423.68c-0.03-2.8,1.15-3.56,3.66-2.38
	c1.47,0.69,2.53,0.4,3.96-0.95c0.73-0.68,1.02-1.47,0.7-2.37c-0.32-0.9-1.06-1.29-2.03-1.43c-2.78-0.41-5.21,0.38-7.39,2.05
	c-3.69,2.83-5.33,5.86-3.5,9.97c0.29,0.65,0.63,1.3,1.03,1.88c2.55,3.65,6.46,5.57,10.7,2.35c0.52-0.39,1.06-1.22,1.01-1.81
	c-0.08-1-1.09-1.19-1.96-1.13C282.1,430.21,280.09,426.83,280.03,423.68z"/>
<path d="M283.45,365.73c-0.32,0.34-0.62,0.7-0.95,1.03c-2.72,2.68-2.23,5.99-0.55,8.91c0.39,0.68,0.93,1.29,1.49,1.84
	c1.79,1.78,2.89,1.43,4.71,0.48c2.47-1.29,4.85-2.73,7.28-4.1c0.16-0.09,0.35-0.1,0.76,0.04c-0.65,1.05-1.27,2.11-1.95,3.14
	c-1.22,1.87-2.45,3.73-3.7,5.58c-1.1,1.62-1.33,1.6-2.61,0.17c-1.01-1.12-2.06-2.22-3.18-3.23c-1.18-1.06-2.53-1.03-3.88-0.24
	c-2.68,1.57-5.37,3.11-8.04,4.7c-0.68,0.4-1.38,0.84-1.9,1.41c-0.26,0.29-0.15,0.93-0.21,1.41c0.39,0.04,0.87,0.25,1.16,0.09
	c1.11-0.61,2.2-1.29,3.23-2.03c1.49-1.07,2.21-1.08,3.5,0.27c1.55,1.61,3.03,3.28,4.57,4.89c0.53,0.55,0.48,1-0.01,1.55
	c-0.32,0.35-0.52,0.81-0.96,1.12c-0.33-1.34-1.18-1.57-2.12-1.71c-1.45-0.22-2.9-0.55-4.36-0.69c-3.6-0.35-6.99-1.46-10.35-2.71
	c-2.74-1.02-5.31-2.39-7.55-4.29c-2.65-2.25-4.41-5.03-5.16-8.5c-1.36-6.31,1.87-10.47,6.45-13.92c3.74-2.82,7.62-5.48,11.52-8.09
	c2.25-1.5,4.67-2.74,6.99-4.14c0.76-0.46,1.17,0.05,1.51,0.48c1.83,2.31,3.61,4.66,5.4,7c0.22,0.28,0.43,0.58,0.61,0.88
	c0.45,0.76,1.23,1.45,0.2,2.39c-1.11,1.01-2.37,1.31-3.31,0.43c-1.22-1.14-2.38-2.35-3.41-3.66c-1.19-1.51-2.13-1.67-3.57-0.4
	c-0.96,0.84-1.93,1.67-2.91,2.48c-0.96,0.79-1.24,1.66-0.48,2.56c1.59,1.88,3.19,3.79,5.03,5.41c1.83,1.62,3.19,1.4,5.61-0.29
	c0.3-0.21,0.62-0.39,0.93-0.58C283.32,365.53,283.39,365.63,283.45,365.73z"/>
<path d="M246.94,390.6c0.4,0.14,0.87,0.19,1.17,0.44c3.05,2.49,6.46,4.33,10.12,5.79c3.62,1.44,7.4,2.14,11.25,2.37
	c1.27,0.07,2.57-0.35,3.85-0.53c0.29-0.04,0.6-0.03,1.01,0.18c-0.62,0.51-1.23,1.03-1.87,1.52c-3.13,2.4-6.59,4.23-10.47,4.92
	c-4.82,0.86-9.6,0.58-14.03-1.84c-2.48-1.35-3.92-4.41-3.03-7.08c0.53-1.61,1.17-3.19,1.75-4.78c0.12-0.33,0.2-0.68,0.3-1.02
	C246.97,390.57,246.94,390.6,246.94,390.6z"/>
<path d="M283.87,369.18c-0.01-1.94,1.05-3.24,2.67-4.06c1.58-0.8,3.15-0.48,4.46,0.67c1.52,1.33,3,2.75,2.29,5.1
	c-0.52,1.69-2,2.49-3.41,3.14C286.53,375.58,283.86,373.37,283.87,369.18z"/>
</svg>
