<?xml version="1.0" encoding="utf-8"?>
<!-- Generator: Adobe Illustrator 25.0.0, SVG Export Plug-In . SVG Version: 6.00 Build 0)  -->
<svg version="1.1" id="Calque_1" xmlns="http://www.w3.org/2000/svg" xmlns:xlink="http://www.w3.org/1999/xlink" x="0px" y="0px"
	 viewBox="0 0 595.28 841.89" style="enable-background:new 0 0 595.28 841.89;" xml:space="preserve">
<style type="text/css">
	.st0{fill:#FFFFFF;}
</style>
<path d="M410.26,397.73c-0.96,0-1.94,0-2.92,0c-15.49,0-31-0.31-46.48,0.08c-17.02,0.43-33.89-11.76-38.01-30.06
	c-2.57-11.39-1.81-22.45,3.82-32.95c0.94-1.75,2.08-2.47,4.12-2.49c5.58-0.05,11.15-0.37,16.73-0.57c0.78-0.03,1.57,0,2.91,0
	c-0.73,0.56-0.96,0.78-1.22,0.92c-9.82,5.45-14.25,14.18-13.93,25c0.36,12.44,7.37,22.95,20.47,25.91c1.77,0.4,3.63,0.53,5.45,0.53
	c10.75,0.05,21.49,0.02,32.24,0.01c3.42,0,3.43-0.04,3.43-3.53c0-5,0-10,0-14.99c0-3.4-0.01-3.41-3.54-3.42
	c-10.33-0.01-20.66-0.05-30.99,0.03c-2.01,0.02-2.89-0.52-2.75-2.65c0.15-2.32,0.09-4.66,0.02-6.99c-0.04-1.45,0.43-2.13,1.98-2.13
	c15.74,0.03,31.49,0,47.23,0.09c0.63,0,1.81,1.03,1.82,1.58c0.06,14.99-0.01,29.98-0.06,44.97
	C410.57,397.16,410.5,397.23,410.26,397.73z"/>
<path d="M138.02,397.27c-5.82,0-11.75,0.76-17.42-0.15c-14.74-2.37-24.5-11.26-29.8-25.08c-1.06-2.78-1.52-5.78-2.3-8.67
	c-0.53-1.97-0.14-3.08,2.2-3.35c2.97-0.34,5.91-1.02,8.84-1.65c1.81-0.39,2.51,0.11,2.7,2.04c1.15,11.71,8.69,20.42,19.94,23.16
	c0.88,0.22,1.8,0.37,2.71,0.38c8.99,0.01,18.01,0.34,26.97-0.13c10.25-0.54,20.01-10.28,21.8-20.82c0.82-4.84,0.84-9.62-0.58-14.33
	c-0.47-1.57,0.05-2.15,1.53-2.33c3.47-0.42,6.93-0.98,10.41-1.27c0.65-0.06,1.87,0.74,2,1.33c4.54,20.12-4.86,44.96-29.86,50.49
	c-5.67,1.25-11.75,0.61-17.65,0.84c-0.5,0.02-1,0-1.5,0C138.02,397.58,138.02,397.42,138.02,397.27z"/>
<path d="M280.93,397.72c-4.36,0-8.54,0.19-12.67-0.12c-1.2-0.09-2.45-1.49-3.39-2.55c-14.02-15.84-27.99-31.72-41.96-47.59
	c-1.63-1.85-3.24-3.71-5.26-6.02c4.14-0.45,7.74-0.48,11.15-1.29c5.32-1.26,8.65,0.67,12.01,4.82c7.65,9.44,15.88,18.41,23.86,27.58
	c0.53,0.61,0.94,1.33,1.41,2c0.28-0.12,0.56-0.25,0.84-0.37c0.1-0.9,0.28-1.8,0.28-2.7c0.02-10.75,0.09-21.5-0.04-32.24
	c-0.03-2.37,0.82-3.01,3-3.03c2.91-0.03,5.82-0.34,8.72-0.56c1.52-0.11,2.31,0.35,2.31,2.06c-0.04,19.58-0.02,39.16-0.04,58.74
	C281.16,396.77,281.05,397.08,280.93,397.72z"/>
<path d="M455.73,397.72c-0.04-0.88-0.09-1.45-0.09-2.02c0-20.72,0-41.44,0-62.16c0-3.29,0.02-3.3,3.32-3.31
	c2.5-0.01,5,0.13,7.49-0.04c2.25-0.15,2.81,0.74,2.8,2.87c-0.08,14.73-0.04,29.46-0.04,44.19c0,6.07-0.05,12.15,0.04,18.22
	c0.02,1.74-0.52,2.34-2.27,2.29C463.32,397.65,459.66,397.72,455.73,397.72z"/>
<path d="M307.68,397.61c-4.41,0-8.71,0-13.31,0c-0.07-0.82-0.19-1.61-0.19-2.4c-0.01-19.32,0.02-38.64-0.05-57.95
	c-0.01-2.12,0.56-3,2.78-2.99c2.91,0.01,5.81-0.28,8.72-0.47c1.53-0.1,2.3,0.39,2.3,2.09c-0.06,20.4-0.08,40.79-0.11,61.19
	C307.81,397.15,307.77,397.23,307.68,397.61z"/>
<path d="M214.53,397.62c-4.54,0-8.84,0-13.36,0c-0.05-0.88-0.13-1.68-0.13-2.48c-0.01-16.15,0.06-32.29-0.07-48.43
	c-0.02-2.71,0.92-3.7,3.44-3.88c3.3-0.23,6.58-0.63,10.12-0.99C214.53,360.51,214.53,378.93,214.53,397.62z"/>
<path d="M322.05,425.47c0.94-0.04,1.89-0.01,2.81-0.15c0.77-0.11,2.08-0.32,2.15-0.68c0.15-0.77-0.24-1.72-0.62-2.5
	c-0.27-0.57-0.94-0.94-1.31-1.48c-0.3-0.45-0.43-1.02-0.81-1.99c2.86,0.79,4.08,2.45,4.49,4.53c0.56,2.77,2.55,2.12,4.28,2.11
	c2.02-0.01,1.7-1.58,1.81-2.89c0.09-1.06,0.35-2.1,0.54-3.15c0.33,0.04,0.66,0.07,0.99,0.11c0.06,1.27,0.2,2.54,0.15,3.8
	c-0.07,1.65,0.71,2.21,2.26,2.18c1.35-0.03,2.44-0.04,2.49-1.91c0.03-1.44,0.51-2.88,0.87-4.76c1.59,0.26,3.77,0.2,5.51,1.04
	c1.25,0.6,1.9,2.43,2.85,3.69c0.49,0.65,0.98,1.7,1.57,1.77c0.68,0.08,1.62-0.58,2.15-1.18c0.87-0.98,1.37-2.3,2.25-3.26
	c1.51-1.64,2.71-1.37,3.55,0.64c0.32,0.76,0.53,1.58,0.74,2.38c0.47,1.8,1.96,1.83,3.19,1.45c0.74-0.23,1.61-1.33,1.71-2.12
	c0.25-1.97,0.02-3.99,0.11-5.98c0.04-0.75,0.45-1.48,0.69-2.22c0.33,0.04,0.66,0.09,0.99,0.13c0,2.35,0.02,4.71-0.01,7.06
	c-0.02,1.73-0.17,3.28,2.44,3.31c2.73,0.03,2.66-1.58,2.63-3.42c-0.02-1.58-0.06-3.17,0.01-4.75c0.03-0.72,0.31-1.42,0.48-2.13
	c0.3,0.03,0.59,0.05,0.89,0.08c0,3.5,0.05,7-0.08,10.49c-0.01,0.31-1.15,0.81-1.78,0.83c-2.83,0.09-5.66-0.03-8.49,0.07
	c-1.12,0.04-2.22,0.44-3.34,0.65c-0.55,0.1-1.3,0.39-1.63,0.15c-2.02-1.48-4.23-0.88-6.44-0.86c-9.24,0.07-18.49,0.04-27.73,0.02
	c-0.81,0-1.62-0.19-2.44-0.29C322.03,425.98,322.04,425.72,322.05,425.47z M346.24,420.79c-0.29,0.17-0.58,0.35-0.87,0.52
	c0.64,1.31,1.27,2.62,1.9,3.93c0.51-0.41,1.44-0.82,1.45-1.24C348.74,422.35,348.06,421.03,346.24,420.79z M358.77,425.99
	c0.38-0.36,0.76-0.73,1.14-1.09c-0.73-0.98-1.46-1.95-2.19-2.93c-0.51,0.58-1.02,1.16-1.54,1.73
	C357.04,424.46,357.9,425.22,358.77,425.99z M345.03,423.65c0.22-0.38,0.44-0.76,0.66-1.14c-0.73-0.29-1.48-0.83-2.19-0.78
	c-0.4,0.03-1.04,1.04-1.01,1.58c0.03,0.56,0.73,1.09,1.14,1.63C344.09,424.52,344.56,424.08,345.03,423.65z"/>
<path d="M479.91,418.7c1.4,0.19,3.22,0.33,4.99,0.71c1.88,0.4,3.12,1.62,3.24,3.62c0.11,1.83,1.04,2.42,2.78,2.31
	c1.87-0.11,1.79-1.36,1.79-2.65c0-1.92-0.06-3.84,0.04-5.75c0.04-0.7,0.49-1.37,0.76-2.06c0.31,0.07,0.62,0.13,0.93,0.2
	c0,3.45,0.09,6.91-0.12,10.34c-0.03,0.42-1.65,1.05-2.54,1.06c-9.41,0.08-18.82,0.05-28.24,0.04c-3.31,0-6.62,0.12-9.91-0.1
	c-1.02-0.07-2.6-0.9-2.81-1.69c-0.28-1.01,0.2-2.85,0.99-3.4c1.57-1.08,3.59-1.52,5.92-2.42c0.09,1.78,0.24,3.06,0.2,4.33
	c-0.07,2.17,1.37,2.17,2.85,2.08c1.45-0.09,3.38,0.61,3.43-2.01c0.03-1.33,0.27-2.65,0.42-3.97c0.37,0.02,0.74,0.05,1.11,0.07
	c0,1.19,0.03,2.37-0.01,3.56c-0.05,1.66,0.66,2.5,2.39,2.38c0.58-0.04,1.17-0.05,1.75,0.01c2.09,0.23,2.83-0.74,2.76-2.76
	c-0.04-1.09,0.32-2.2,0.5-3.29c0.38,0.04,0.76,0.09,1.13,0.13c0,1.29,0.02,2.57,0,3.86c-0.03,1.67,0.89,2.09,2.39,2.08
	c1.44-0.02,2.36-0.26,2.42-2.02C479.1,421.95,479.55,420.55,479.91,418.7z M457.2,423.5c-1.09-1.14-1.93-2.26-2.11-2.16
	c-1.06,0.57-1.97,1.43-2.93,2.18c0.66,0.59,1.32,1.63,1.99,1.65C454.97,425.18,455.8,424.32,457.2,423.5z M483.55,420.95
	c0.09,1.07,0.05,2.14,0.31,3.13c0.13,0.48,0.79,1.01,1.29,1.12c0.34,0.08,1.07-0.45,1.22-0.86
	C486.94,422.85,485.56,421.18,483.55,420.95z M481.15,420.84c-0.56,1.28-1.1,1.93-1.01,2.48c0.09,0.59,0.77,1.08,1.2,1.61
	c0.43-0.51,1.2-1.02,1.2-1.52C482.53,422.76,481.89,422.12,481.15,420.84z"/>
<path d="M174.45,422.23c0.8-0.56,1.57-1.16,2.41-1.66c3.22-1.91,5.26-1.02,6.24,2.54c0.21,0.78,0.73,1.78,1.38,2.06
	c1.82,0.79,3.04-0.13,3.11-2.16c0.07-2-0.03-4,0.06-5.99c0.03-0.68,0.42-1.35,0.64-2.03c0.31,0.04,0.61,0.08,0.92,0.13
	c0,3.5,0.06,7-0.1,10.48c-0.02,0.34-1.43,0.88-2.2,0.89c-7.66,0.07-15.33,0.09-22.99,0.03c-1.97-0.02-3.39,0.16-4.33,2.35
	c-0.48,1.12-2.3,1.67-3.51,2.47c-0.18-0.26-0.36-0.51-0.54-0.77c0.73-0.53,1.52-1,2.15-1.62c0.37-0.37,0.73-1.04,0.64-1.48
	c-0.07-0.37-0.78-0.81-1.25-0.87c-1.75-0.23-4.04,0.36-4.11-2.4c-0.07-2.67,2.02-3.61,4.18-4.26c0.78-0.23,1.6-0.29,2.67-0.48
	c0.15,1.06,0.33,1.93,0.38,2.81c0.11,1.93,0.49,3.31,3.03,3.14c2.5-0.17,2.12-1.75,2.22-3.32c0.06-0.93,0.33-1.84,0.51-2.75
	c0.32,0.04,0.64,0.08,0.96,0.12c0.07,1.27,0.19,2.54,0.19,3.81c-0.01,1.9,1.18,2.09,2.66,2.1c1.47,0.01,2.44-0.4,2.43-2.08
	c-0.01-2-0.04-4,0.04-6c0.03-0.77,0.36-1.53,0.55-2.3c0.3,0.03,0.59,0.06,0.89,0.09c0,2.31,0,4.62,0,6.93
	C173.93,422.08,174.19,422.16,174.45,422.23z M174.15,425.36c1.87,0,3.39,0.03,4.9-0.01c1.14-0.03,2.76,0.04,2.29-1.64
	c-0.27-0.96-1.71-2.25-2.6-2.24C176.74,421.5,175.12,422.7,174.15,425.36z M159.46,423.54c-0.97-1.06-1.87-2.22-1.98-2.14
	c-1.02,0.65-1.89,1.52-2.81,2.32c0.7,0.53,1.4,1.47,2.11,1.49C157.5,425.22,158.26,424.33,159.46,423.54z"/>
<path d="M389.06,419.14c0.11,1.22,0.2,1.87,0.22,2.52c0.11,3.47,1.99,4.81,5.31,3.52c0.62-0.24,0.98-1.5,1.19-2.35
	c0.28-1.14,0.3-2.34,0.43-3.52c0.35,0.02,0.71,0.04,1.06,0.06c0.08,1,0.31,2.01,0.21,2.98c-0.25,2.53,0.99,3.04,3.25,3.07
	c2.37,0.03,3.66-0.48,3.41-3.17c-0.09-0.98,0.36-2.01,0.56-3.01c0.36,0.05,0.72,0.1,1.08,0.15c0,1.29,0.02,2.57-0.01,3.86
	c-0.04,1.9,1.15,2.09,2.65,2.1c1.52,0.01,2.36-0.48,2.31-2.15c-0.06-2.08-0.07-4.17,0.03-6.25c0.03-0.71,0.46-1.4,0.71-2.1
	c0.31,0.06,0.62,0.12,0.92,0.17c0,2.26,0,4.52,0,7.16c2.97-0.96,5.33-4.22,8.01-1.76c1.25,1.15,1.24,3.69,1.9,5.95
	c-1.53,0.08-2.33,0.16-3.14,0.16c-9.5,0.01-19,0-28.49,0c-1.72,0-3.47,0.19-5.14-0.1c-1.13-0.19-2.95-0.98-3.03-1.66
	c-0.14-1.24,0.44-3.05,1.37-3.78C385.17,420,387.07,419.8,389.06,419.14z M412.68,424.07c0.14,0.43,0.28,0.85,0.42,1.28
	c1.53,0,3.06,0.03,4.59-0.01c1.12-0.03,2.59,0.21,2.36-1.65c-0.21-1.64-1.32-2.77-2.92-2.24
	C415.54,421.98,414.16,423.17,412.68,424.07z M388.6,423.18c-1.03-0.92-1.89-1.94-2.09-1.82c-0.96,0.56-1.74,1.42-2.58,2.18
	c0.72,0.59,1.42,1.59,2.18,1.64C386.75,425.21,387.46,424.14,388.6,423.18z"/>
<path d="M238.25,415.14c0,2.53,0.06,5.06-0.02,7.59c-0.06,1.91,0.68,2.67,2.64,2.67c2.01,0,2.93-0.68,2.82-2.76
	c-0.06-1.08,0.2-2.18,0.31-3.27c0.37,0.02,0.75,0.05,1.12,0.07c0,1.35-0.17,2.73,0.07,4.03c0.13,0.68,0.98,1.22,1.5,1.83
	c0.53-0.6,1.34-1.13,1.52-1.83c0.35-1.34,0.34-2.77,0.49-4.16c0.38,0.03,0.75,0.06,1.13,0.1c0,0.85-0.09,1.72,0.02,2.56
	c0.16,1.26-0.67,3.28,1.57,3.25c2.08-0.03,1.14-1.97,1.39-3.13c0.2-0.94,0.45-1.86,0.68-2.79c0.32,0.05,0.64,0.1,0.96,0.15
	c0.05,1.11-0.05,2.26,0.21,3.32c0.22,0.9,0.92,2.42,1.32,2.39c1.15-0.08,2.42-0.6,3.33-1.33c0.79-0.63,1.02-1.93,1.75-2.68
	c0.63-0.64,1.73-1.39,2.43-1.24c0.7,0.15,1.26,1.32,1.7,2.14c0.35,0.64,0.2,1.73,0.67,2.08c0.82,0.61,1.94,1.07,2.94,1.08
	c0.49,0,1.37-1.11,1.43-1.77c0.18-2.23,0.05-4.49,0.1-6.74c0.01-0.54,0.3-1.07,0.46-1.6c0.23,0.03,0.47,0.06,0.7,0.09
	c0,3.64,0,7.28,0,11.35c-3.39-1.13-6.77,2.26-10.47-0.16c-0.82-0.53-2.39,0.14-3.61,0.15c-6.24,0.02-12.48-0.04-18.73,0.04
	c-1.74,0.02-2.39-0.56-2.3-2.3c0.11-2.32-0.03-4.66,0.08-6.99c0.04-0.79,0.49-1.57,0.75-2.35
	C237.56,414.99,237.91,415.07,238.25,415.14z M263.19,426c0.45-0.27,0.89-0.54,1.34-0.81c-0.51-1.07-1.03-2.13-1.54-3.2
	c-0.61,0.44-1.23,0.87-1.84,1.31C261.83,424.2,262.51,425.1,263.19,426z"/>
<path d="M122.01,425.15c-0.33-1.05-0.64-1.73-0.73-2.43c-0.27-1.91,0.42-3.27,2.44-3.69c1.97-0.41,3.58,0.06,4.06,2.2
	c0.28,1.27,0.44,2.72,0.11,3.93c-0.17,0.63-1.54,1.31-2.37,1.32c-6.91,0.1-13.82,0.1-20.73,0.03c-2.3-0.02-4.24,0.11-5.93,2.18
	c-1.77,2.17-5.45,1.92-7.41-0.02c-1.81-1.78-1.66-4.9,0.67-7.42c-0.26,1.01-0.45,1.62-0.56,2.23c-0.45,2.5,0.98,4.85,3.13,5.17
	c2.41,0.36,4.32-1.38,4.46-4.21c0.05-0.98-0.23-1.98-0.24-2.98c0-0.72,0.2-1.43,0.31-2.15c0.32-0.01,0.64-0.03,0.96-0.04
	c0.18,1.29,0.52,2.58,0.52,3.87c0,2.06,1.21,2.19,2.8,2.21c1.69,0.02,2.41-0.6,2.39-2.34c-0.02-1.22,0.3-2.45,0.47-3.68
	c0.35,0.02,0.69,0.05,1.04,0.07c0.08,1.18,0.24,2.36,0.21,3.53c-0.05,1.68,0.61,2.43,2.34,2.4c3.9-0.07,4.5,0.47,4.33-3.9
	c-0.03-0.74,0.53-1.5,0.82-2.25c0.34,0.07,0.67,0.15,1.01,0.22c0,0.94,0.09,1.9-0.02,2.83c-0.28,2.4,0.72,3.41,3.12,3.11
	C120.05,425.25,120.92,425.23,122.01,425.15z M127.35,422.65c-1.18-0.96-1.95-1.84-2.93-2.22c-0.29-0.11-1.13,1.18-1.72,1.83
	c0.92,0.82,1.82,1.68,2.82,2.4C125.59,424.7,126.43,423.67,127.35,422.65z"/>
<path d="M318.73,419.56c0.04,0.07,0.12,0.13,0.12,0.2c0.86,6.78,0.86,6.78-5.85,6.77c-5.08,0-10.16,0.03-15.24-0.03
	c-1.74-0.02-3.09,0.25-4.33,1.77c-1.89,2.32-5.52,2.48-7.66,0.69c-2.02-1.68-2.05-4.66,0.28-7.81c-0.18,1.08-0.27,1.65-0.37,2.22
	c-0.46,2.74,0.93,5.01,3.24,5.29c2.5,0.3,4.3-1.59,4.31-4.61c0-1.08-0.27-2.16-0.24-3.23c0.02-0.55,0.42-1.08,0.65-1.62
	c0.25,0.04,0.49,0.07,0.74,0.11c0.19,1.27,0.55,2.54,0.52,3.8c-0.04,2.06,1.15,2.22,2.74,2.25c1.7,0.03,2.42-0.65,2.42-2.35
	c0-1.23,0.23-2.47,0.35-3.7c0.4,0.02,0.8,0.05,1.21,0.07c0,1.26,0,2.52,0,3.78c0.01,2.68,2.01,2.08,3.59,2.17
	c1.63,0.09,2.76-0.27,2.71-2.29c-0.03-1.25,0.27-2.51,0.42-3.77c0.38,0.03,0.76,0.06,1.14,0.08c0,1.18-0.19,2.4,0.06,3.53
	c0.19,0.86,0.83,2.17,1.45,2.28c1.68,0.29,1.6-1.18,1.66-2.37c0.06-1.12,0.18-2.23,0.28-3.35c0.31,0.01,0.61,0.03,0.92,0.04
	c0.06,1.27-0.06,2.58,0.26,3.78c0.2,0.75,1.06,1.33,1.62,1.99c0.53-0.68,1.31-1.28,1.53-2.05c0.36-1.24,0.37-2.59,0.52-3.89
	C318.11,419.41,318.42,419.49,318.73,419.56z"/>
<path d="M203.32,421.42c-0.11,1.29-0.37,2.5-0.29,3.68c0.13,1.95,1.18,3.31,3.21,3.56c2.17,0.26,3.58-0.92,3.99-2.93
	c0.29-1.42-0.02-2.96,0.02-4.45c0.02-0.66,0.24-1.31,0.37-1.97c0.28,0.01,0.56,0.01,0.83,0.02c0.2,1.26,0.55,2.53,0.56,3.79
	c0.02,2.24,1.44,2.21,3.05,2.23c1.76,0.02,2.3-0.83,2.33-2.46c0.02-1.21,0.33-2.42,0.52-3.64c0.37,0.05,0.74,0.1,1.11,0.14
	c0,1.28,0.04,2.56-0.01,3.84c-0.06,1.49,0.61,2.12,2.08,2.1c2.16-0.04,4.33,0.1,6.48-0.06c0.86-0.07,2.26-0.6,2.39-1.16
	c0.3-1.31-1.96-3.33-3.19-3.15c-0.64,0.09-1.26,0.31-2.29,0.57c1.74-2.9,3.92-3.11,5.47-0.93c1.24,1.74,2.37,3.55,3.8,5.7
	c-1.13,0.09-1.98,0.22-2.83,0.23c-5.24,0.02-10.48,0.06-15.72-0.01c-1.91-0.02-3.42,0.25-4.77,1.93c-1.83,2.27-5.69,2.25-7.62,0.33
	C201.01,427,201.21,423.6,203.32,421.42z"/>
<path d="M431.37,419.11c0.15,1.91,0.25,3.05,0.32,4.2c0.09,1.42,0.84,2.03,2.27,2.03c1.56,0,2-0.79,1.97-2.19
	c-0.05-1.99-0.08-3.99,0.01-5.98c0.03-0.75,0.43-1.49,0.67-2.24c0.31,0.04,0.63,0.08,0.94,0.12c0,3.5,0.05,7-0.07,10.5
	c-0.01,0.35-1.08,0.96-1.63,0.93c-2.22-0.1-3.91,0.15-4.9,2.66c-0.4,1.01-2.22,1.45-3.78,2.39c0.12-0.92,0.08-1.12,0.17-1.21
	c0.84-0.95,1.69-1.88,2.54-2.81c-1.08-0.36-2.22-0.61-3.23-1.11c-0.73-0.37-1.86-1.09-1.84-1.61c0.06-1.21,0.37-2.85,1.21-3.48
	C427.37,420.29,429.24,419.93,431.37,419.11z M430.92,423.53c-0.98-1.07-1.86-2.22-1.98-2.15c-0.98,0.61-1.82,1.45-2.7,2.22
	c0.68,0.57,1.33,1.56,2.04,1.6C428.98,425.24,429.74,424.33,430.92,423.53z"/>
<path d="M353.55,441.27c-0.74,1.33-1.91,2.49-1.92,3.66c-0.03,2.18-1.45,5.21,2.57,5.82c-2.26,1.7-3.9,1.24-4.16-0.96
	c-0.13-1.11-0.12-2.45-1.66-2.09c-0.6,0.14-1.01,1.34-1.38,2.13c-0.23,0.49-0.21,1.11-0.35,1.93c-1.32-0.09-2.53-0.18-3.75-0.26
	c-0.11-0.19-0.21-0.37-0.32-0.56c4.42-1.07,2.54-4.39,2.67-6.86c0.04-0.79-1.3-1.65-2.38-2.9c1.02-0.07,2.14-0.35,3.12-0.11
	c0.45,0.11,0.69,1.25,0.95,1.95c0.11,0.29-0.1,0.75,0.06,0.97c0.45,0.65,1.02,1.21,1.54,1.81c0.48-0.65,1.3-1.25,1.38-1.94
	C350.32,440.61,350.91,440.2,353.55,441.27z"/>
<path d="M471.04,441.82c3.85-1.6,4.73-1.14,4.98,1.52c0.08,0.84,0.85,1.61,1.3,2.42c0.41-0.79,1.08-1.54,1.17-2.36
	c0.31-2.72,1.71-3.35,4.52-1.56c-3.05,0.33-2.92,2.36-2.93,4.5c-0.01,2.15-0.1,4.17,3.15,4.35c-2.87,1.82-4.28,1.26-4.74-1.22
	c-0.13-0.68-0.9-1.23-1.37-1.84c-0.38,0.61-1.01,1.2-1.1,1.85c-0.35,2.48-1.33,2.92-4.64,1.35c3.14-0.42,2.95-2.42,2.85-4.42
	C474.14,444.47,474.82,442.21,471.04,441.82z"/>
<path d="M407.21,442.22c-1.76,0-3.53-0.09-5.29,0.05c-0.69,0.06-1.61,0.48-1.93,1.03c-0.27,0.46,0.2,1.34,0.34,2.03
	c0.82-0.31,1.63-0.62,2.67-1.02c0.71,0.57,1.63,1.3,2.62,2.09c-1.07,0.91-2,1.69-2.87,2.44c-0.78-0.52-1.5-1-2.23-1.48
	c-0.22,0.58-0.73,1.57-0.6,1.67c0.76,0.56,1.65,1.15,2.55,1.27c1.56,0.2,3.15,0.06,4.73,0.06c0.02,0.39,0.03,0.77,0.05,1.16
	c-1.18,0.08-2.37,0.22-3.55,0.22c-5.82,0-5.82-0.02-5.75-5.75c0.06-5.07,0.06-5.07,5.2-5.06c1.16,0,2.33,0.03,3.49,0.09
	c0.2,0.01,0.39,0.25,0.58,0.38C407.21,441.67,407.21,441.94,407.21,442.22z"/>
<path d="M133.71,430.38c6.09-2.11,1.95-7.52,3.62-11.05c0.22,0.02,0.45,0.04,0.67,0.07c0.19,1.27,0.52,2.53,0.54,3.81
	c0.04,2.28,1.54,2.14,3.1,2.15c1.69,0.01,1.66-0.91,1.76-2.26c0.09-1.14,0.67-2.68,1.55-3.23c1.66-1.04,3.64-0.87,5.43-0.17
	c0.01,0.27,0.02,0.53,0.02,0.8c-0.99,0.07-2.09-0.09-2.96,0.28c-0.81,0.34-1.79,1.15-1.97,1.93c-0.29,1.24,0.14,2.52,1.86,2.63
	c1.1,0.07,2.19,0.15,3.29,0.23c0,0.26,0,0.52,0,0.77c-0.83,0.07-1.65,0.2-2.48,0.21c-2.08,0.03-4.17,0.09-6.24-0.01
	c-1.82-0.09-3.03,0.27-3.92,2.19c-0.52,1.14-2.2,1.75-3.35,2.6C134.33,431,134.02,430.69,133.71,430.38z"/>
<path d="M339.2,441.55c-0.06,1-0.34,2.27-0.15,3.48c0.43,2.81-0.38,4.98-2.61,6.18c-2.54,1.36-5.78,0.92-7.6-1.04
	c-1.51-1.63-1.87-4.41-0.81-6.27c1.3-2.27,4.22-3.37,6.94-2.8C336.46,441.41,338.01,441.43,339.2,441.55z M335.8,443.29
	c-2.23-1.64-4.1-1.49-5.7,0.24c-1.67,1.8-1.66,4.05,0.02,5.83c1.6,1.7,4.04,1.89,5.87,0.46c1.84-1.44,2.18-3.2,0.87-5.28
	c-1.11,0.75-2.21,1.5-3.32,2.25c-0.14-0.14-0.29-0.29-0.43-0.43C333.96,445.39,334.82,444.41,335.8,443.29z"/>
<path d="M323.36,441.54c-0.06,1.11-0.28,2.45-0.16,3.75c0.21,2.31-0.13,4.34-2.23,5.66c-2.13,1.34-4.38,1.49-6.61,0.27
	c-2.12-1.17-2.92-3.05-2.71-5.43c0.29-3.14,3.77-5.41,7.21-4.77C320.51,441.33,322.2,441.42,323.36,441.54z M317.75,446.89
	c-0.17-0.18-0.35-0.35-0.52-0.53c0.56-0.61,1.1-1.24,1.69-1.81c1.29-1.24,0.89-2.07-0.67-2.39c-2.07-0.42-3.53,0.65-4.59,2.3
	c-1.09,1.7-0.76,3.38,0.55,4.8c1.35,1.47,3.03,2.07,4.95,1.14c1.77-0.86,2.97-2.19,2.77-4.31c-0.12-1.26-0.74-1.89-1.98-0.94
	C319.2,445.71,318.48,446.31,317.75,446.89z"/>
<path d="M423.48,451.78c-3.47-0.02-5.74-2.17-5.76-5.45c-0.02-3.14,2.64-5.48,6.14-5.41c3.31,0.07,5.7,2.46,5.64,5.66
	C429.42,449.75,427.05,451.8,423.48,451.78z M427.78,447.04c-2.87,0-5.56,0-8.45,0c0.74,2.45,2.17,3.6,4.28,3.59
	C425.7,450.62,427.16,449.51,427.78,447.04z M419.34,445.53c2.96,0,5.56,0,8.51,0c-0.79-2.32-2.07-3.49-4.07-3.56
	C421.65,441.9,420.22,443.03,419.34,445.53z"/>
<path d="M460.54,451.42c-1.4,0.09-2.86,0.22-4.32,0.28c-3.04,0.14-5.16-1.14-5.92-3.54c-0.79-2.5-0.07-4.77,1.96-6.19
	c2.16-1.51,5.22-1.5,7.25,0.03c2.08,1.56,2.7,4.09,1.72,6.73C460.91,449.61,460.76,450.56,460.54,451.42z M457.57,450.01
	c-0.52-1.15-0.98-2.15-1.43-3.15c0.91,0.14,1.29,0.56,1.75,0.88c0.43,0.3,0.94,0.49,1.42,0.73c1.19-2.44,0.75-4.51-1.12-5.82
	c-1.84-1.28-3.6-1.02-5.23,0.4c-1.72,1.5-2.03,3.55-0.85,5.35C453.4,450.41,455.14,450.97,457.57,450.01z"/>
<path d="M273.83,451.4c-1.49,0.11-2.96,0.26-4.43,0.32c-3.48,0.13-5.64-1.66-6.03-4.94c-0.32-2.66,1.61-5.2,4.41-5.8
	c3.16-0.67,6.15,0.89,6.89,3.84c0.28,1.13,0,2.43-0.15,3.64C274.38,449.46,274.06,450.44,273.83,451.4z M269.14,446.56
	c0.18-0.11,0.36-0.22,0.54-0.33c0.4,0.39,0.76,0.85,1.22,1.14c0.58,0.36,1.25,0.57,1.88,0.85c0.31-0.72,0.92-1.46,0.87-2.16
	c-0.16-2.13-1.52-3.49-3.5-4.05c-2.3-0.65-3.79,0.66-4.9,2.48c-1.09,1.8-0.47,3.39,0.87,4.71c1.35,1.34,2.91,2.09,4.86,0.8
	C270.32,448.77,269.73,447.66,269.14,446.56z"/>
<path d="M373.21,442.27c-1.53,0-3.06-0.05-4.59,0.02c-1.24,0.05-2.95-0.45-3,1.64c-0.06,2.12,1.66,1.59,2.9,1.73
	c0.99,0.11,1.99,0.25,2.98,0.38c-0.03,0.33-0.06,0.65-0.09,0.98c-1.35,0.06-2.74-0.04-4.04,0.24c-0.67,0.15-1.19,0.99-1.78,1.52
	c0.58,0.55,1.09,1.43,1.75,1.56c1.28,0.26,2.65,0.06,3.98,0.11c0.65,0.03,1.3,0.21,1.95,0.32c-0.02,0.28-0.03,0.56-0.05,0.85
	c-2.74,0-5.49,0.03-8.23-0.05c-0.29-0.01-0.81-0.68-0.82-1.05c-0.07-2.83-0.07-5.66-0.02-8.49c0.01-0.32,0.43-0.9,0.67-0.91
	c2.82-0.06,5.64-0.04,8.47-0.04C373.26,441.48,373.24,441.87,373.21,442.27z"/>
<path d="M188.15,451.14c-0.43,0.19-0.85,0.5-1.3,0.55c-8.08,0.97-8.11,0.93-8.07-7.14c0.01-1.07,0-2.14,0-3.3c3.23,0,6.25,0,9.26,0
	c0,0.34,0.01,0.68,0.01,1.02c-1.55,0-3.1,0.09-4.64-0.02c-2.15-0.15-2.95,0.71-2.91,2.89c0.13,5.74-0.47,5.12,5.04,5.17
	c0.84,0.01,1.68,0.11,2.53,0.16C188.1,450.7,188.12,450.92,188.15,451.14z"/>
<path d="M143.29,442.29c-1.67,0-3.34,0.04-5.01-0.01c-1.7-0.06-2.35,0.68-2.34,2.38c0.05,6.64-0.48,5.51,5.26,5.66
	c0.75,0.02,1.49,0.17,2.68,0.31c-1.55,1.04-8.17,1.5-9,0.86c-0.28-0.22-0.53-0.68-0.53-1.03c-0.05-2.74-0.07-5.48,0-8.22
	c0.01-0.43,0.57-1.2,0.89-1.21c2.67-0.1,5.34-0.06,8.02-0.06C143.28,441.41,143.29,441.85,143.29,442.29z"/>
<path d="M209.46,446.42c0.01,3.09-2.63,5.57-5.86,5.51c-3.3-0.07-5.71-2.47-5.72-5.69c0-3.03,2.62-5.35,6.01-5.32
	C207.02,440.94,209.45,443.34,209.46,446.42z M203.75,450.69c2.15-0.03,4.38-2.23,4.39-4.33c0.01-2.17-2.42-4.55-4.55-4.45
	c-2.27,0.1-4.49,2.44-4.39,4.63C199.28,448.68,201.53,450.72,203.75,450.69z"/>
<path d="M123.48,442.27c-1.56,0-3.12,0.08-4.68-0.02c-1.87-0.12-2.72,0.51-2.68,2.53c0.11,6.54-0.55,5.42,5.38,5.53
	c0.68,0.01,1.36,0.17,2.03,0.26c0.01,0.31,0.01,0.61,0.02,0.92c-1.35,0.08-2.7,0.24-4.04,0.23c-5.99-0.04-5.02,0.7-5.09-4.93
	c-0.07-5.87-0.02-5.89,5.87-5.87c1.07,0,2.14,0.17,3.21,0.26C123.5,441.55,123.49,441.91,123.48,442.27z"/>
<path d="M102.46,451.6c3.41-3.24,4.45-6.58,0.03-10.41c3.34,0,5.79,0,8.38,0c-0.93,1.92-2.54,3.76-2.46,5.53
	c0.08,1.68,1.93,3.27,3.01,4.9c-0.19,0.18-0.38,0.36-0.57,0.53c-1.24-1.32-2.48-2.63-3.83-4.07c-1.29,1.53-2.38,2.81-3.47,4.1
	C103.19,452,102.82,451.8,102.46,451.6z M107.01,445.26c0.67-1.06,1.24-1.61,1.33-2.23c0.05-0.3-0.79-1.02-1.24-1.03
	c-0.44-0.01-1.29,0.66-1.27,0.98C105.89,443.6,106.42,444.19,107.01,445.26z"/>
<path d="M494.14,441.83c-1.44,0.59-2.87,1.17-4.86,1.98c1.44,1.04,2.5,1.8,3.68,2.66c-0.99,0.75-1.95,1.47-3.25,2.44
	c1.69,0.8,3.12,1.47,4.55,2.15c-0.11,0.32-0.22,0.63-0.33,0.95c-2.64-0.71-5.28-1.42-8.41-2.26c1.69-1.27,2.91-2.18,4.43-3.31
	c-1.47-1.04-2.65-1.87-4.29-3.03c2.98-0.95,5.54-1.76,8.11-2.58C493.89,441.16,494.01,441.49,494.14,441.83z"/>
<path d="M218.27,443.35c3.06-0.93,5.55-1.69,8.05-2.44c0.11,0.27,0.23,0.54,0.34,0.81c-1.41,0.67-2.82,1.35-4.65,2.23
	c1.35,0.94,2.34,1.63,3.63,2.52c-1.03,0.79-1.97,1.49-3.21,2.44c1.61,0.78,2.96,1.44,4.31,2.1c-0.11,0.31-0.21,0.61-0.32,0.92
	c-2.59-0.69-5.18-1.38-8.33-2.21c1.68-1.2,2.91-2.08,4.49-3.2C221.15,445.47,219.94,444.58,218.27,443.35z"/>
<path d="M308.8,442.27c-1.48,0-2.96,0.11-4.43-0.02c-2.31-0.2-3.28,0.59-3.25,3.06c0.06,4.98-0.05,4.97,5.01,5.01
	c0.91,0.01,1.82,0.14,2.74,0.22c0,0.35,0.01,0.71,0.01,1.06c-1.44,0.05-2.89,0.15-4.33,0.14c-5.66-0.02-4.73,0.5-4.78-4.74
	c-0.06-6.08-0.02-6.09,6.13-6.06c0.97,0,1.95,0.18,2.92,0.28C308.8,441.56,308.8,441.92,308.8,442.27z"/>
<path d="M297.16,441.75c-1.4,0.64-2.8,1.28-4.67,2.14c1.33,0.95,2.34,1.68,3.55,2.55c-1,0.81-1.96,1.59-3.12,2.53
	c1.62,0.78,2.99,1.43,4.35,2.09c-0.11,0.31-0.23,0.62-0.34,0.92c-2.61-0.69-5.21-1.38-8.38-2.22c1.7-1.22,2.92-2.1,4.51-3.24
	c-1.46-1.07-2.67-1.96-4.3-3.16c2.97-0.91,5.51-1.69,8.06-2.47C296.93,441.17,297.04,441.46,297.16,441.75z"/>
<path d="M391.8,446.43c-1.69-1.12-2.91-1.92-4.58-3.03c3.04-0.93,5.62-1.71,8.19-2.5c0.11,0.29,0.23,0.58,0.34,0.87
	c-1.45,0.65-2.9,1.29-4.87,2.18c1.53,0.97,2.61,1.65,3.88,2.45c-1.04,0.8-2.03,1.56-3.26,2.5c1.68,0.84,3.1,1.55,4.53,2.26
	c-0.14,0.3-0.29,0.61-0.43,0.91c-2.64-0.74-5.28-1.48-8.41-2.35C388.9,448.49,390.19,447.57,391.8,446.43z"/>
<path d="M439.35,446.07c0-1.75,0-3.32,0-4.88c0.2-0.12,0.39-0.24,0.59-0.37c0.66,1.89,0.48,4.11,3.58,4.09
	c3.06-0.02,2.94-2.07,3.56-3.92c0.19,0.06,0.38,0.13,0.57,0.19c0,1.52,0,3.04,0,4.6c-2.9,0.86-2.87,0.87-3.2,4.52
	c-0.05,0.55-0.5,1.07-0.76,1.6c-0.33-0.54-0.68-1.07-0.99-1.63c-0.07-0.13-0.04-0.33-0.01-0.49
	C443.09,447.27,442.31,445.74,439.35,446.07z"/>
<path d="M229.59,451.42c4.01-1.24,2.22-4.52,2.35-6.89c0.06-1.05-1.16-2.18-1.8-3.29c1.66,0,3.95,0,6.24,0
	c-4.74,1.11-2.41,4.86-2.67,7.42c-0.09,0.86,1.34,1.88,2.03,2.76C234.05,451.42,231.82,451.42,229.59,451.42z"/>
<path d="M244.1,451.28c1.6-1.5,3.2-3,5.04-4.72c-1.35-0.98-2.45-1.77-3.96-2.87c2.9-0.93,5.41-1.72,7.91-2.52
	c0.12,0.29,0.23,0.59,0.35,0.88c-1.54,0.66-3.08,1.31-5.05,2.15c1.19,0.92,2.06,1.59,3.11,2.4c-2.3,1.97-4.32,4.03-6.91,5.29
	C244.43,451.68,244.27,451.48,244.1,451.28z"/>
<path d="M343.33,470.21c0.57-2.1,1.15-4.19,1.72-6.29c0.2-0.01,0.4-0.03,0.6-0.04c0.75,1.48,1.49,2.96,2.6,5.15
	c1.13-2.06,1.92-3.5,3.09-5.64c0.75,2.7,1.34,4.8,1.92,6.9c-0.2,0.07-0.4,0.15-0.6,0.22c-0.49-1.21-0.99-2.43-1.71-4.2
	c-1,1.73-1.71,2.96-2.65,4.58c-0.91-1.56-1.65-2.83-2.68-4.59c-0.72,1.76-1.21,2.96-1.7,4.17
	C343.73,470.38,343.53,470.29,343.33,470.21z"/>
<path d="M377.26,470.56c-1.11-0.7-2.39-1.51-3.64-2.31c-0.06,0.06-0.01-0.02,0.06-0.05c1.19-0.41,3.38,0.21,3-1.97
	c-0.35-2.05-2.39-1.31-3.75-1.24c-0.51,0.03-1.29,0.94-1.4,1.55c-0.22,1.25-0.07,2.56-0.07,3.85c-0.28,0-0.56,0-0.83-0.01
	c0-2.05-0.78-4.77,0.24-5.94c0.88-1.02,3.83-0.54,5.77-0.19c0.5,0.09,0.73,2.2,0.88,3.41C377.61,468.56,377.37,469.49,377.26,470.56
	z"/>
<path d="M430.78,470.71c-2.88,0-4.13-1.04-4.14-3.41c-0.01-2.44,1.19-3.48,4.03-3.48c2.78-0.01,4.16,1.1,4.22,3.37
	C434.95,469.37,433.39,470.71,430.78,470.71z M430.54,464.88c-1.43,0.03-2.86,0.45-2.89,2.42c-0.02,1.92,1.31,2.53,2.99,2.55
	c1.75,0.03,3.22-0.46,3.2-2.57C433.82,465.29,432.38,464.9,430.54,464.88z"/>
<path d="M304.83,469.86c1.36,0,2.73,0.12,4.06-0.06c0.56-0.07,1.04-0.75,1.55-1.15c-0.51-0.33-0.97-0.84-1.52-0.96
	c-0.88-0.19-1.93,0.13-2.69-0.23c-0.75-0.35-1.55-1.19-1.72-1.96c-0.09-0.41,1.04-1.49,1.72-1.59c1.59-0.24,3.25-0.08,4.88-0.08
	c0.02,0.28,0.05,0.56,0.07,0.84c-1.27,0.08-2.56,0.08-3.81,0.28c-0.64,0.1-1.22,0.55-1.82,0.85c0.63,0.38,1.21,0.9,1.89,1.09
	c0.7,0.2,1.58-0.15,2.2,0.14c0.75,0.35,1.3,1.12,1.94,1.7c-0.68,0.65-1.27,1.71-2.05,1.87c-1.5,0.3-3.11,0.09-4.67,0.09
	C304.85,470.41,304.84,470.13,304.83,469.86z"/>
<path d="M206.8,466.62c-0.07-1.28-0.42-3.13,2.61-2.89c3.26,0.25,4.66,1.04,4.73,3.45c0.07,2.35-1.37,3.53-4.31,3.55
	C206.81,470.74,206.81,470.74,206.8,466.62z M207.79,467.31c-0.08,1.47,0.13,2.66,2.06,2.57c1.72-0.08,3.28-0.46,3.33-2.47
	c0.05-2.05-1.47-2.46-3.22-2.53C208.16,464.82,207.61,465.7,207.79,467.31z"/>
<path d="M440.78,467.1c1.07,0,2.03,0,3.17,0c0,1.17,0,2.19,0,3.5c-2.35-0.11-4.97,1.16-6.61-1.34c-0.62-0.95-0.64-2.84-0.1-3.87
	c1.34-2.56,3.87-1.34,5.94-1.52c0.05,0.22,0.1,0.45,0.14,0.67c-0.94,0.13-1.95,0.08-2.8,0.42c-1.05,0.42-2.23,0.98-2.83,1.84
	c-0.3,0.44,0.31,2.17,0.9,2.44c1.12,0.5,2.52,0.39,3.81,0.43c0.17,0,0.58-0.88,0.5-0.95C442.3,468.16,441.61,467.7,440.78,467.1z"/>
<path d="M178.58,462.96c1.14,1.91,2.28,3.82,3.42,5.73c0.32-0.21,0.64-0.42,0.96-0.62c0.14-1.22,0.28-2.44,0.42-3.67
	c0.12,0.01,0.25,0.02,0.37,0.04c0,1.99,0,3.97,0,6.63c-1.99-1.83-3.58-3.28-5.61-5.14c-0.27,1.8-0.46,3.03-0.64,4.26
	c-0.13,0-0.25-0.01-0.38-0.01c0-2.07,0-4.14,0-6.21C177.61,463.63,178.1,463.3,178.58,462.96z"/>
<path d="M93.09,463.8c2.73,0.02,4.07,1.2,4.03,3.53c-0.04,2.27-1.46,3.41-4.21,3.37c-2.83-0.04-4.15-1.13-4.16-3.43
	C88.74,464.9,90.15,463.77,93.09,463.8z M93.06,464.89c-1.76-0.05-3.28,0.41-3.28,2.48c0,1.87,1.35,2.47,3.05,2.48
	c1.77,0.01,3.25-0.49,3.29-2.52C96.16,465.39,94.69,464.94,93.06,464.89z"/>
<path d="M491.74,469.83c1.43,0,2.86,0.09,4.27-0.05c0.5-0.05,0.95-0.66,1.43-1.02c-0.47-0.36-0.89-0.94-1.42-1.05
	c-0.96-0.2-2.08,0.11-2.94-0.25c-0.74-0.31-1.53-1.21-1.68-1.97c-0.08-0.43,1.02-1.48,1.69-1.59c1.5-0.25,3.06-0.08,4.6-0.08
	c0.02,0.27,0.04,0.54,0.06,0.81c-1.2,0.08-2.42,0.04-3.59,0.27c-0.59,0.12-1.08,0.71-1.62,1.08c0.53,0.31,1.02,0.77,1.59,0.88
	c0.88,0.17,1.88-0.09,2.71,0.19c0.65,0.23,1.57,1.04,1.54,1.52c-0.05,0.71-0.79,1.85-1.37,1.94c-1.72,0.26-3.5,0.09-5.25,0.09
	C491.76,470.36,491.75,470.1,491.74,469.83z"/>
<path d="M323.3,464.68c-1.13,0.09-2.36-0.06-3.35,0.35c-0.92,0.38-1.95,1.26-2.23,2.15c-0.19,0.59,0.69,2.06,1.35,2.27
	c1.16,0.36,2.52,0.04,3.8,0.01c-0.13-0.55-0.09-1.33-0.44-1.58c-0.48-0.34-1.25-0.27-1.92-0.71c1.04,0,2.15-0.22,3.07,0.1
	c0.39,0.14,0.42,1.42,0.52,2.2c0.04,0.28-0.19,0.86-0.3,0.86c-1.78,0.04-3.66,0.38-5.3-0.1c-1.71-0.5-2.06-2.32-1.62-3.98
	c0.46-1.73,1.7-2.56,3.54-2.46c0.95,0.05,1.9,0.01,2.85,0.01C323.28,464.09,323.29,464.38,323.3,464.68z"/>
<path d="M388.43,469.83c1.39,0,2.79,0.09,4.17-0.05c0.53-0.05,1-0.63,1.5-0.96c-0.52-0.39-1-0.98-1.58-1.12
	c-0.95-0.23-2.06,0.07-2.94-0.28c-0.69-0.27-1.69-1.32-1.57-1.77c0.19-0.72,1.11-1.62,1.85-1.74c1.52-0.27,3.13-0.08,4.7-0.08
	c0,0.29,0,0.58,0,0.87c-1.33,0.07-2.68,0.05-4,0.25c-0.52,0.08-0.97,0.64-1.45,0.98c0.5,0.33,0.97,0.83,1.52,0.94
	c0.88,0.18,1.92-0.15,2.7,0.18c0.73,0.31,1.56,1.14,1.7,1.87c0.09,0.46-0.95,1.56-1.59,1.65c-1.65,0.24-3.36,0.08-5.05,0.08
	C388.39,470.38,388.41,470.11,388.43,469.83z"/>
<path d="M171.06,463.8c2.63-0.02,4.13,1.27,4.1,3.52c-0.02,2.13-1.47,3.36-4,3.4c-2.86,0.04-4.38-1.2-4.34-3.54
	C166.85,465,168.34,463.81,171.06,463.8z M170.85,464.89c-1.63,0.03-3.12,0.47-3.13,2.39c-0.01,2.03,1.52,2.54,3.26,2.56
	c1.68,0.01,3.09-0.56,3.12-2.43C174.14,465.35,172.61,464.88,170.85,464.89z"/>
<path d="M224.71,470c1.36-0.06,2.73-0.05,4.07-0.22c0.47-0.06,0.88-0.58,1.32-0.89c-0.44-0.4-0.82-1.03-1.33-1.15
	c-0.96-0.23-2.08,0.09-2.95-0.28c-0.76-0.32-1.26-1.26-1.88-1.92c0.68-0.57,1.29-1.51,2.04-1.64c1.47-0.26,3.03-0.08,4.55-0.08
	c0.01,0.28,0.03,0.56,0.04,0.84c-0.81,0.07-1.65,0.03-2.43,0.22c-1.01,0.26-1.97,0.7-2.94,1.06c0.93,0.33,1.85,0.71,2.8,0.97
	c0.47,0.13,1.13-0.12,1.46,0.12c0.64,0.47,1.55,1.19,1.54,1.78c-0.01,0.62-0.92,1.64-1.55,1.74c-1.52,0.26-3.12,0.08-4.69,0.08
	C224.74,470.44,224.73,470.22,224.71,470z"/>
<path d="M98.91,470.16c0-1.7-0.01-3.4,0.01-5.1c0-0.24,0.1-0.68,0.18-0.69c1.92-0.18,3.89-0.58,5.75-0.28c0.57,0.09,1,2.1,1.17,3.28
	c0.15,0.97-0.17,2.01-0.29,3.15c-1.03-0.63-2.35-1.43-3.66-2.24c-0.03,0.03,0.02-0.05,0.08-0.08c1.16-0.48,3.4,0.14,2.87-2.01
	c-0.17-0.69-2.41-1.05-3.74-1.16c-0.45-0.04-1.3,1.07-1.46,1.76c-0.25,1.08-0.07,2.27-0.07,3.41
	C99.48,470.18,99.2,470.17,98.91,470.16z"/>
<path d="M411.7,470.7c-2.73,0.01-4.05-1.16-4.01-3.54c0.04-2.27,1.28-3.34,3.93-3.36c2.78-0.02,4.22,1.08,4.29,3.27
	C415.98,469.45,414.54,470.69,411.7,470.7z M411.73,464.89c-1.58,0.06-3.12,0.34-3.15,2.32c-0.03,2.01,1.36,2.66,3.14,2.65
	c1.74-0.01,3.22-0.54,3.14-2.61C414.78,465.36,413.42,464.83,411.73,464.89z"/>
<path d="M254.84,464.7c-0.96,0.07-2-0.08-2.85,0.26c-0.96,0.39-2.07,1.06-2.47,1.91c-0.27,0.57,0.37,2.18,0.96,2.42
	c1.13,0.44,2.52,0.23,3.8,0.3c-0.02-0.56,0.18-1.37-0.11-1.63c-0.43-0.38-1.21-0.37-1.83-0.79c1.04,0,2.08,0,3.59,0
	c-0.35,1.32-0.61,3.23-0.89,3.24c-1.9,0.02-4.02,0.04-5.59-0.81c-0.74-0.4-1.02-3-0.5-4.15c1.19-2.64,3.73-1.48,5.78-1.55
	C254.77,464.17,254.81,464.43,254.84,464.7z"/>
<path d="M138.53,463.44c2.03,1.89,3.64,3.38,5.71,5.31c0.25-1.94,0.41-3.27,0.58-4.59c0.14,0,0.29-0.01,0.43-0.01
	c0,2.08,0,4.17,0,6.84c-1.96-1.69-3.68-3.17-5.79-4.99c-0.23,1.85-0.37,3.08-0.52,4.31c-0.14-0.01-0.27-0.01-0.41-0.02
	C138.53,468.22,138.53,466.17,138.53,463.44z"/>
<path d="M338.12,463.79c2.55,0.01,3.99,1.23,4.01,3.39c0.02,2.26-1.45,3.52-4.14,3.52c-2.68,0.01-4.15-1.25-4.13-3.53
	C333.87,464.97,335.37,463.78,338.12,463.79z M338.39,469.87c1.12,0.07,2.62-0.47,2.72-2.44c0.09-1.85-1.27-2.51-2.97-2.54
	c-1.72-0.03-3.29,0.37-3.37,2.4C334.69,469.16,336.06,469.79,338.39,469.87z"/>
<path d="M498.68,414.97c0,3.91,0,7.64,0,11.69C496.87,424.85,496.96,416.44,498.68,414.97z"/>
<path d="M445.9,470.14c0-1.76-0.08-3.52,0.06-5.27c0.03-0.38,0.84-0.9,1.36-1c0.88-0.17,1.82-0.09,2.73-0.07
	c2.83,0.04,3.72,1.31,2.96,3.96c-0.24,0.82-0.14,1.75-0.21,2.76c-1.06-0.64-2.36-1.42-3.66-2.2c0,0,0.1-0.14,0.22-0.17
	c1.22-0.25,3.09,0.09,2.73-1.89c-0.11-0.62-1.88-1.14-2.95-1.34c-1.56-0.28-2.56,0.39-2.42,2.21c0.08,1,0.01,2.01,0.01,3.02
	C446.46,470.15,446.18,470.14,445.9,470.14z"/>
<path d="M98.03,451.92c-0.08-1.15-0.22-2.3-0.24-3.46c-0.04-2.08-0.04-4.16,0.04-6.24c0.01-0.39,0.41-0.81,0.72-1.12
	c0.07-0.07,0.77,0.24,0.77,0.38c0.05,3.47,0.04,6.93,0.04,10.4C98.91,451.9,98.47,451.91,98.03,451.92z"/>
<path d="M117.82,470.08c-0.05-0.62-0.13-1.25-0.14-1.87c-0.07-4.72-0.07-4.72,4.56-4.41c2.12,0.14,3.05,1.53,2.52,3.56
	c-0.26,0.99-0.3,2.04-0.44,3.07c-1.07-0.64-2.36-1.41-3.6-2.15c-0.04,0.03,0.08-0.1,0.22-0.13c1.23-0.24,3.07,0.1,2.88-1.81
	c-0.06-0.58-1.83-1.21-2.9-1.42c-1.8-0.36-2.59,0.62-2.45,2.44c0.07,0.89,0.01,1.8,0.01,2.7
	C118.26,470.06,118.04,470.07,117.82,470.08z"/>
<path d="M272.42,471.04c-2.02-1.81-3.52-3.16-5.49-4.92c-0.27,1.71-0.45,2.87-0.63,4.02c-0.12,0-0.23,0-0.35,0c0-2,0-4.01,0-6.56
	c1.84,1.71,3.42,3.17,5.45,5.06c0.27-1.79,0.46-3.04,0.65-4.3c0.12,0.01,0.24,0.03,0.36,0.04
	C272.42,466.36,272.42,468.34,272.42,471.04z"/>
<path d="M108.56,466.74c-0.22-1.75,0.01-3.22,2.79-3.01c3.11,0.24,4.35,0.99,4.39,3.44c0.04,2.53-1.29,3.38-4.49,3.59
	C108.06,470.98,108.57,468.93,108.56,466.74z M109.3,467.37c-0.15,1.53,0.21,2.62,2.09,2.51c1.69-0.1,3.28-0.41,3.3-2.49
	c0.01-1.88-1.31-2.42-3.01-2.5C109.84,464.79,109.07,465.58,109.3,467.37z"/>
<path d="M240.11,441.11c0,3.56,0,7.12,0,10.69c-0.26,0-0.53,0.01-0.79,0.01c0-3.56,0-7.13,0-10.69
	C239.58,441.12,239.84,441.12,240.11,441.11z"/>
<path d="M166.75,451.79c0-3.56,0-7.12,0-10.68c0.34,0,0.67-0.01,1.01-0.01c0.34,3.56,0.34,7.13-0.05,10.7
	C167.39,451.79,167.07,451.79,166.75,451.79z"/>
<path d="M468.29,468c0.76-0.08,1.68,0.07,2.25-0.3c0.58-0.37,0.83-1.26,1.22-1.93c-1.22-0.29-2.44-0.8-3.65-0.78
	c-0.52,0.01-1.3,1.06-1.46,1.75c-0.25,1.08-0.07,2.25-0.63,3.39c0-2,0-4.01,0-6.31c1.51,0,2.97,0,4.43,0c1.63,0,2.5,0.88,2.5,2.44
	c0,1.63-1.04,2.34-2.6,2.33c-0.69,0-1.37-0.09-2.06-0.14C468.3,468.32,468.3,468.16,468.29,468z"/>
<path d="M246.31,471.01c-2.05-1.85-3.66-3.31-5.79-5.23c-0.23,1.94-0.37,3.18-0.52,4.42c-0.11,0-0.23,0-0.34,0c0-2.02,0-4.04,0-6.59
	c1.96,1.78,3.59,3.27,5.74,5.22c0.22-2.03,0.37-3.35,0.51-4.68c0.14,0,0.27,0,0.41,0.01C246.31,466.23,246.31,468.3,246.31,471.01z"
	/>
<path d="M420.42,468.02c0.78-0.1,1.68,0,2.31-0.36c0.55-0.31,0.81-1.15,1.2-1.75c-1.21-0.35-2.41-0.91-3.62-0.94
	c-0.55-0.01-1.44,0.95-1.63,1.62c-0.31,1.13-0.18,2.38-0.23,3.57c-0.22,0-0.44,0-0.67,0c0-1.75,0-3.5,0-5.25
	c0-0.16,0.05-0.46,0.1-0.47c1.83-0.2,3.68-0.59,5.48-0.42c0.61,0.06,1.59,1.62,1.51,2.41C424.61,469.35,422.31,468.49,420.42,468.02
	z"/>
<path d="M489.16,470.38c-6.89,0.78-5.94,0.84-5.65-6.36c1.87,0,3.75,0,5.62,0c-2.04,1.09-5.73,0.09-4.7,4.42
	C485.11,471.28,487.66,469.03,489.16,470.38z"/>
<path d="M190.42,468.8c0.06-0.97,0.12-1.83,0.17-2.69c-0.29-0.05-0.58-0.09-0.87-0.14c-1.04,1.57-2.09,3.14-3.13,4.71
	c-0.22-0.14-0.45-0.29-0.67-0.43c1.26-2.15,2.51-4.29,4.13-7.04c1.57,2.68,2.87,4.87,4.38,7.43
	C192.69,469.84,191.38,469.24,190.42,468.8z"/>
<path d="M386.24,463.82c-1.67,2.16-4.96-0.75-5.35,3.15c-0.45,4.42,3.21,2.21,5.33,3.56c-2.36,0-4.12,0-6.28,0
	c0-1.87-0.08-3.68,0.06-5.47c0.03-0.44,0.73-1.14,1.18-1.19C382.7,463.73,384.25,463.82,386.24,463.82z"/>
<path d="M132.29,414.64c0,4.05,0.02,7.56-0.04,11.06c0,0.26-0.49,0.7-0.78,0.72c-0.29,0.02-0.88-0.37-0.88-0.59
	c0.01-3.39,0.07-6.77,0.2-10.16C130.79,415.46,131.36,415.26,132.29,414.64z"/>
<path d="M459.65,463.09c1.55,2.78,2.75,4.95,4.16,7.48c-1.79-0.8-3.12-1.4-4.08-1.83c0.18-0.75,0.38-1.61,0.58-2.47
	c-0.31-0.12-0.62-0.25-0.94-0.37c-1.07,1.57-2.15,3.14-3.22,4.71c-0.21-0.13-0.41-0.26-0.62-0.39
	C456.79,468.05,458.04,465.88,459.65,463.09z"/>
<path d="M360.65,464.5c-1.6,1.09-5.35-1.06-4.84,3.09c0.1,0.81,0.88,1.87,1.62,2.18c0.9,0.38,2.08,0.09,3.14,0.09
	c0,0.3,0,0.61-0.01,0.91c-1.79-0.18-4.54,0.25-5.15-0.7c-0.91-1.4-1-4.26-0.1-5.59c0.68-1.01,3.45-0.6,5.3-0.83
	C360.62,463.94,360.64,464.22,360.65,464.5z"/>
<path d="M147.33,470.2c1.31-2.13,2.62-4.25,4.2-6.83c1.54,2.54,2.83,4.67,4.36,7.18c-1.84-0.78-3.18-1.35-4.68-1.99
	c0.24-0.13,0.7-0.23,0.78-0.46c0.17-0.51,0.16-1.08,0.22-1.63c-0.6,0.12-1.47,0.02-1.75,0.39c-0.93,1.19-1.65,2.54-2.45,3.83
	C147.78,470.53,147.55,470.36,147.33,470.2z"/>
<path d="M442.29,414.92c0,3.72,0.02,7.21-0.03,10.71c0,0.27-0.44,0.63-0.75,0.76c-0.15,0.06-0.7-0.31-0.7-0.49
	c0.06-3.52,0.18-7.04,0.31-10.56C441.12,415.26,441.53,415.19,442.29,414.92z"/>
<path d="M276.29,414.64c0,4.26,0,7.97,0,11.93C274.68,425,274.62,416.88,276.29,414.64z"/>
<ellipse cx="192.95" cy="420.75" rx="0.51" ry="7.91"/>
<path d="M263.22,470.9c-1.77-0.26-4.38,0.07-5.09-0.94c-0.89-1.27-0.96-4.22-0.03-5.36c0.86-1.07,3.48-0.71,5.33-0.99
	c0.05,0.33,0.09,0.66,0.14,0.99c-0.93,0.09-1.86,0.3-2.78,0.26c-2.03-0.09-2.2,1.09-2.24,2.7c-0.04,1.74,0.61,2.45,2.32,2.33
	c0.8-0.06,1.61-0.01,2.42-0.01C263.25,470.22,263.24,470.56,263.22,470.9z"/>
<path d="M283.26,464.47c-1.54,1.09-5.04-0.94-4.71,3.26c0.29,3.67,3.29,1.3,4.54,3.04c-1.68-0.15-4.4,0.24-4.82-0.57
	c-0.82-1.56-0.98-4.15-0.16-5.63c0.52-0.95,3.26-0.69,5.01-0.98C283.16,463.88,283.21,464.17,283.26,464.47z"/>
<path d="M331.83,464.5c-1.57,1.14-5.29-1.15-4.91,3.27c0.31,3.65,3.34,1.24,4.54,3.06c-1.69-0.19-4.42,0.16-4.86-0.69
	c-0.81-1.56-0.93-4.21-0.06-5.63c0.6-0.98,3.35-0.64,5.13-0.89C331.72,463.91,331.78,464.2,331.83,464.5z"/>
<ellipse cx="497.4" cy="446.47" rx="0.53" ry="7.53"/>
<path d="M377.39,441.15c0,3.56,0,7.11,0,10.67c-0.27,0-0.54,0-0.81,0c-0.55-3.56-0.46-7.13-0.06-10.7
	C376.81,441.13,377.1,441.14,377.39,441.15z"/>
<path d="M132.53,470.91c-1.72-0.29-4.32-0.01-4.96-1c-0.86-1.33-0.88-4.1,0-5.38c0.68-0.99,3.3-0.64,5.21-0.47
	c-1.79,1.27-5.54-0.27-4.8,4.07C128.54,471.41,131.42,468.89,132.53,470.91z"/>
<path d="M221.59,470.98c-1.77-0.33-4.36-0.09-5.09-1.14c-0.88-1.26-0.83-4.11,0.07-5.36c0.7-0.98,3.33-0.58,5.24-0.39
	c-1.84,1.23-5.61-0.27-4.86,4.07C217.52,471.44,220.38,468.9,221.59,470.98z"/>
<path d="M278.94,440.66c0,4.03,0,7.59,0,11.34C277.23,450.65,277.13,442.61,278.94,440.66z"/>
<path d="M173.32,452.86c-1.23-1.67-2.35-2.53-2.51-3.54c-0.27-1.71,1.03-2.53,2.67-2.52c1.63,0.01,2.98,0.87,2.67,2.53
	C175.96,450.37,174.69,451.22,173.32,452.86z M175.73,449.18c-1.15-0.65-1.85-1.37-2.39-1.26c-0.6,0.11-1.05,0.99-1.57,1.53
	c0.54,0.42,1.1,1.18,1.63,1.17C174.02,450.6,174.63,449.9,175.73,449.18z"/>
<path d="M160.94,452.85c-1.26-1.63-2.41-2.47-2.57-3.47c-0.26-1.63,0.95-2.56,2.61-2.58c1.63-0.02,2.96,0.79,2.67,2.47
	C163.45,450.32,162.24,451.19,160.94,452.85z M161.01,451.25c0.7-0.9,1.56-1.6,1.43-1.92c-0.25-0.63-0.99-1.28-1.64-1.44
	c-0.34-0.08-1.34,0.9-1.31,1.34C159.55,449.82,160.31,450.37,161.01,451.25z"/>
<path d="M129.49,446.36c0.73,0.98,1.87,1.87,2.09,2.96c0.32,1.58-0.94,2.33-2.47,2.37c-1.57,0.04-3.06-0.49-2.81-2.27
	c0.15-1.09,1.31-2.03,2.02-3.04C128.71,446.36,129.1,446.36,129.49,446.36z M128.8,447.18c-0.69,1.02-1.41,1.62-1.42,2.23
	c-0.01,0.41,0.98,1.19,1.51,1.18c0.51-0.01,1.44-0.84,1.41-1.26C130.26,448.72,129.53,448.16,128.8,447.18z"/>
<path d="M466.82,452.74c-1.32-1.53-2.62-2.37-2.8-3.41c-0.27-1.56,0.93-2.52,2.62-2.53c1.78-0.01,3.04,0.9,2.8,2.62
	C469.31,450.41,468.07,451.23,466.82,452.74z M468.92,449.32c-0.99-0.73-1.64-1.54-2.03-1.43c-0.72,0.2-1.28,0.95-1.91,1.47
	c0.53,0.44,1.05,1.22,1.6,1.24C467.19,450.63,467.83,449.96,468.92,449.32z"/>
<path d="M92.59,452.73c-1.39-1.49-2.98-2.48-2.9-3.3c0.09-0.95,1.53-2.24,2.61-2.53c1.63-0.43,3.05,0.69,2.8,2.48
	C94.96,450.37,93.78,451.21,92.59,452.73z M94.85,449.36c-1.16-0.76-1.77-1.46-2.4-1.48c-0.54-0.02-1.1,0.75-1.65,1.17
	c0.51,0.54,0.96,1.41,1.55,1.52C92.91,450.67,93.63,449.99,94.85,449.36z"/>
<path d="M285.82,464.55c0.86,2.06-0.38,5.5,3.68,5.29c4.03-0.21,2.04-3.64,3.22-5.53c0.13,1.88,1.17,4.18-0.64,5.46
	c-1.23,0.87-3.67,1.09-5.05,0.46C284.58,469.13,285.9,466.56,285.82,464.55z"/>
<path d="M412.75,446.44c1.2,1.44,2.37,2.22,2.51,3.15c0.26,1.7-1.16,2.16-2.64,2.14c-1.43-0.02-2.64-0.66-2.34-2.17
	C410.47,448.62,411.57,447.86,412.75,446.44z M414.8,449.47c-1.17-0.49-1.81-0.99-2.38-0.91c-0.44,0.06-0.77,0.84-1.16,1.3
	c0.47,0.38,0.97,1.1,1.41,1.07C413.24,450.88,413.76,450.23,414.8,449.47z"/>
<path d="M193.3,452.74c-1.22-1.42-2.39-2.17-2.53-3.07c-0.25-1.66,1.21-2.46,2.59-2.13c0.96,0.23,2.19,1.3,2.37,2.18
	C195.87,450.37,194.5,451.33,193.3,452.74z M195.4,449.81c-0.97-0.67-1.51-1.33-1.93-1.27c-0.59,0.09-1.09,0.73-1.62,1.14
	c0.43,0.43,0.83,1.18,1.28,1.21C193.69,450.93,194.3,450.37,195.4,449.81z"/>
<path d="M159.14,470.7c-1.05-2.51,1.06-5.91-2.95-6.66c1.95,0,3.9,0,5.85,0C158.14,464.77,160.33,468.26,159.14,470.7z"/>
<path d="M405.77,464.15c-3.65,0.83-1.6,4.12-2.6,6.32c-1.38-2,1.31-5.89-3.13-6.32C401.95,464.15,403.86,464.15,405.77,464.15z"/>
<path d="M362.73,464.02c1.96,0,3.92,0,6.04,0c-0.99,0.83-2.22,1.38-2.58,2.27c-0.43,1.07-0.1,2.43-0.33,3.72
	C364.64,468.15,366.83,464.49,362.73,464.02z"/>
<path d="M193.44,439.98c1.14,1.43,2.47,2.4,2.35,3.13c-0.14,0.86-1.46,1.98-2.41,2.14c-1.29,0.22-2.88-0.51-2.53-2.23
	C191.04,442.09,192.22,441.36,193.44,439.98z M195.35,443.26c-0.87-0.69-1.34-1.37-1.76-1.34c-0.6,0.05-1.15,0.63-1.72,0.98
	c0.42,0.5,0.79,1.31,1.29,1.41C193.66,444.42,194.3,443.8,195.35,443.26z"/>
<path d="M434.35,446.53c1.22,1.31,2.54,2.11,2.56,2.94c0.02,0.73-1.3,1.89-2.24,2.16c-1.36,0.39-2.89-0.29-2.74-1.94
	C432.03,448.76,433.23,447.93,434.35,446.53z M434.63,451.5c0.55-0.9,1.14-1.45,1.12-1.97c-0.02-0.39-0.92-1.1-1.28-1.02
	c-0.56,0.12-0.99,0.8-1.48,1.24C433.43,450.22,433.88,450.7,434.63,451.5z"/>
<path d="M359,440c1.17,1.4,2.5,2.32,2.41,3.08c-0.1,0.84-1.56,2.2-2.3,2.12c-0.97-0.1-1.82-1.38-2.73-2.15
	C357.09,442.22,357.81,441.38,359,440z M361.03,442.99c-1.12-0.58-1.71-1.13-2.26-1.1c-0.47,0.03-0.91,0.72-1.36,1.12
	c0.49,0.46,0.94,1.22,1.49,1.3C359.37,444.39,359.96,443.7,361.03,442.99z"/>
<path d="M412.79,446.37c-1.19-1.57-2.4-2.49-2.4-3.41c0-0.68,1.61-1.9,2.46-1.87c0.86,0.04,2.23,1.24,2.35,2.08
	C415.31,443.91,414,444.85,412.79,446.37z M414.76,443.07c-1.03-0.62-1.58-1.21-2.12-1.2c-0.46,0.01-0.92,0.7-1.38,1.09
	c0.45,0.49,0.85,1.29,1.36,1.37C413.11,444.4,413.72,443.72,414.76,443.07z"/>
<path d="M358.86,446.52c1.21,1.35,1.95,2.19,2.69,3.02c-0.82,0.73-1.54,1.85-2.49,2.1c-1.38,0.36-2.88-0.36-2.68-2.02
	C356.5,448.7,357.71,447.91,358.86,446.52z M358.96,448.01c-0.67,0.72-1.11,1.2-1.56,1.68c0.52,0.42,1.04,1.17,1.55,1.15
	c0.48-0.01,1.13-0.76,1.31-1.32C360.36,449.26,359.57,448.69,358.96,448.01z"/>
<path d="M258.11,452.72c-1.11-1.43-2.42-2.43-2.26-3.09c0.2-0.87,1.47-1.89,2.43-2.08c1.4-0.28,2.8,0.64,2.54,2.22
	C260.67,450.66,259.41,451.36,258.11,452.72z M260.31,449.81c-0.91-0.65-1.41-1.28-1.85-1.24c-0.6,0.05-1.16,0.61-1.74,0.95
	c0.45,0.5,0.84,1.31,1.37,1.41C258.6,451.02,259.24,450.38,260.31,449.81z"/>
<path d="M258.22,446.24c-1.11-1.39-2.41-2.34-2.3-3.05c0.14-0.85,1.56-2.17,2.31-2.09c0.97,0.1,1.82,1.37,2.73,2.13
	C260.21,444.05,259.47,444.87,258.22,446.24z M260.4,443.07c-1.1-0.62-1.67-1.18-2.23-1.17c-0.47,0.01-0.94,0.66-1.41,1.03
	c0.45,0.47,0.86,1.26,1.38,1.33C258.65,444.34,259.27,443.71,260.4,443.07z"/>
<path d="M434.55,446.24c-1.19-1.4-2.52-2.29-2.43-3.04c0.09-0.83,1.36-1.94,2.3-2.17c1.38-0.34,2.8,0.49,2.58,2.1
	C436.87,444.05,435.72,444.83,434.55,446.24z M436.55,443.29c-1.03-0.73-1.54-1.37-2.08-1.4c-0.47-0.02-0.98,0.64-1.47,1
	c0.42,0.51,0.77,1.32,1.29,1.45C434.76,444.46,435.42,443.85,436.55,443.29z"/>
<path d="M201.53,470.76c-1.63-0.11-4.31,0.3-4.68-0.44c-0.85-1.7-0.57-3.96-0.74-5.99c0.25-0.02,0.5-0.03,0.75-0.05
	c0.11,1.57-0.31,3.53,0.48,4.61c0.72,0.98,2.74,1.01,4.19,1.45C201.53,470.48,201.53,470.62,201.53,470.76z"/>
<path d="M237.21,464c0,2.16,0,4.32,0,6.48c-0.2,0-0.4,0-0.59,0.01c0-2.15,0-4.3,0-6.45C236.82,464.02,237.01,464.01,237.21,464z"/>
<path d="M463.18,418.33c0.08-4.03,0.29-4.31,2.82-4.07c-0.69,0.43-1.36,0.86-2.04,1.29c0.62,0.64,1.24,1.28,1.95,2.02
	C465.07,417.8,464.16,418.06,463.18,418.33z"/>
<path d="M477.36,467.34c1.71-0.48,3.74-0.13,3.77-2.72c0,1.75,0,3.5,0,5.25C480.91,467.48,479.14,467.5,477.36,467.34z"/>
<path d="M275.38,464.44c0,1.86,0,3.73,0,5.59c-0.11,0.01-0.23,0.01-0.34,0.02c0-1.87,0-3.74,0-5.6
	C275.15,464.44,275.26,464.44,275.38,464.44z"/>
<path d="M164.58,464.23c0,2.01,0,4.01,0,6.02c-0.15,0-0.3,0.01-0.45,0.01c0-2.01,0-4.01,0-6.02
	C164.28,464.24,164.43,464.23,164.58,464.23z"/>
<path d="M475.49,464.25c0,1.98,0,3.97,0,5.95c-0.16,0-0.33,0.01-0.49,0.01c0-1.99,0-3.97,0-5.96
	C475.16,464.26,475.33,464.26,475.49,464.25z"/>
<path class="st0" d="M260.31,449.81c-1.07,0.57-1.72,1.2-2.23,1.11c-0.52-0.1-0.92-0.91-1.37-1.41c0.58-0.34,1.14-0.9,1.74-0.95
	C258.9,448.53,259.4,449.17,260.31,449.81z"/>
<path class="st0" d="M260.4,443.07c-1.13,0.64-1.75,1.27-2.26,1.19c-0.51-0.08-0.92-0.86-1.38-1.33c0.47-0.37,0.94-1.03,1.41-1.03
	C258.73,441.89,259.3,442.45,260.4,443.07z"/>
</svg>
