<?xml version="1.0" encoding="utf-8"?>
<!-- Generator: Adobe Illustrator 25.0.0, SVG Export Plug-In . SVG Version: 6.00 Build 0)  -->
<svg version="1.1" id="Calque_1" xmlns="http://www.w3.org/2000/svg" xmlns:xlink="http://www.w3.org/1999/xlink" x="0px" y="0px"
	 viewBox="0 0 304.3 293.69" style="enable-background:new 0 0 304.3 293.69;" xml:space="preserve">
<style type="text/css">
	.st0{fill:#FFFFFF;}
	.st1{fill:#171717;}
	.st2{fill:#3D4866;}
	.st3{fill:#4861A7;}
	.st4{font-family:'MyriadPro-Regular';}
	.st5{font-size:12px;}
</style>
<path class="st0" d="M225.32,48.53c-0.8-0.01-1.6-0.04-2.4-0.04c-73.28,0-146.56,0-219.85,0c-0.64,0-1.28,0.03-1.92,0.04
	c0.08-0.16,0.13-0.43,0.25-0.46c0.26-0.07,0.55-0.02,0.83-0.02c74,0,148,0,222,0.03C224.55,48.08,225.35,47.49,225.32,48.53z"/>
<path class="st0" d="M33.31,236.82c0.6,0.01,1.2,0.04,1.8,0.04c73.56,0,147.12,0,220.69,0c0.56,0,1.12-0.03,1.68-0.04
	c-0.04,0.08-0.08,0.23-0.12,0.23c-0.32,0.02-0.64,0.01-0.96,0.01c-74,0-148,0-222-0.01C34.03,237.05,33.67,236.9,33.31,236.82z"/>
<path class="st0" d="M224.35,95.74c0,0.63,0,1.1,0,1.57c0,13.69,0,27.38,0,41.07c0,1.6,0,1.6-1.55,1.6c-11.44,0-22.88,0-34.32,0
	c-1.58,0-1.59,0-1.59-1.61c0-13.69,0.01-27.38-0.02-41.07c0-1.13,0.19-1.6,1.49-1.59c11.56,0.05,23.12,0.03,34.68,0.03
	C223.4,95.74,223.75,95.74,224.35,95.74z M205.59,138.42c0.24,0,0.48,0,0.72,0c5,0,9.99,0.01,14.99-0.01c1.42,0,1.6-0.21,1.61-1.59
	c0.01-1.99,0-3.99,0-5.98c0-1.56-0.16-1.73-1.71-1.73c-4.6-0.01-9.19,0-13.79,0c-5.8,0-11.59,0-17.39,0c-1.49,0-1.65,0.17-1.65,1.65
	c0,1.79,0,3.59,0,5.38c0,2.27,0,2.27,2.35,2.27C195.67,138.42,200.63,138.42,205.59,138.42z M205.6,117.08
	c5.27,0,10.55-0.01,15.82,0.01c1.06,0.01,1.53-0.36,1.49-1.47c-0.06-1.91-0.01-3.83-0.02-5.74c0-1.95-0.04-1.99-2.04-1.99
	c-10.15,0-20.3,0-30.45,0c-0.24,0-0.48,0.01-0.72,0c-0.92-0.02-1.38,0.34-1.35,1.35c0.06,2.07,0.01,4.15,0.02,6.22
	c0,1.51,0.1,1.61,1.65,1.61C195.21,117.08,200.41,117.08,205.6,117.08z M205.58,127.64c5.32,0,10.63-0.02,15.95,0.02
	c1.03,0.01,1.43-0.33,1.4-1.38c-0.06-2.11-0.05-4.23,0-6.34c0.03-1.06-0.41-1.41-1.42-1.4c-2.16,0.04-4.32,0.01-6.47,0.01
	c-8.35,0-16.71,0-25.06,0c-1.49,0-1.59,0.1-1.59,1.53c-0.01,2.03,0.06,4.07-0.02,6.1c-0.05,1.19,0.41,1.48,1.53,1.47
	C195.11,127.62,200.34,127.64,205.58,127.64z M205.73,106.36c5.24,0,10.48-0.02,15.72,0.01c1.06,0.01,1.52-0.32,1.48-1.45
	c-0.07-2.15-0.04-4.31-0.01-6.46c0.01-0.91-0.31-1.29-1.26-1.29c-10.68,0.02-21.35,0.02-32.03,0c-0.93,0-1.29,0.32-1.27,1.26
	c0.04,2.11,0.01,4.23,0.01,6.34c0,1.53,0.06,1.59,1.65,1.59C195.25,106.37,200.49,106.36,205.73,106.36z"/>
<path class="st0" d="M157.47,117.78c0-6.82-0.01-13.64,0.02-20.47c0-0.55,0.14-1.26,0.49-1.62c3.88-3.97,7.83-7.88,11.74-11.83
	c0.65-0.66,1.07-0.5,1.65,0.08c3.8,3.82,7.64,7.59,11.41,11.43c0.45,0.46,0.76,1.26,0.76,1.9c0.04,13.76,0.03,27.53,0.04,41.29
	c0,1.09-0.43,1.44-1.51,1.43c-7.76-0.04-15.51-0.04-23.27,0c-1.09,0.01-1.36-0.39-1.35-1.4
	C157.49,131.66,157.47,124.72,157.47,117.78z M169.81,108.92c0-6.98,0.01-13.97-0.01-20.95c0-0.4-0.21-0.8-0.32-1.2
	c-0.35,0.2-0.76,0.33-1.04,0.6c-2.9,2.85-5.8,5.7-8.64,8.61c-0.45,0.46-0.84,1.23-0.84,1.86c-0.05,10.65-0.03,21.31-0.05,31.96
	c0,1.06,0.45,1.38,1.46,1.36c2.56-0.04,5.12-0.01,7.68-0.01c1.67,0,1.76-0.08,1.76-1.76C169.82,122.57,169.82,115.74,169.81,108.92z
	 M171.76,86.64c-0.12,0.06-0.24,0.12-0.36,0.18c-0.04,0.54-0.11,1.08-0.11,1.62c-0.01,8.78,0,17.56,0,26.33c0,4.91,0,9.82,0,14.72
	c0,1.6,0.04,1.65,1.58,1.65c2.64,0.01,5.28-0.02,7.92,0.01c0.84,0.01,1.22-0.2,1.22-1.13c-0.02-10.81-0.01-21.62-0.04-32.44
	c0-0.46-0.21-1.04-0.53-1.37c-2.46-2.53-4.97-5.01-7.47-7.49C173.25,88.02,172.49,87.34,171.76,86.64z M170.55,132.61
	c-3.36,0-6.71,0.03-10.07-0.01c-1.14-0.01-1.61,0.45-1.56,1.56c0.04,0.76,0,1.51,0.01,2.27c0.01,1.84,0.13,1.98,1.98,1.98
	c5.79,0.01,11.59,0,17.38,0c0.88,0,1.76-0.01,2.64-0.01c0.74,0,1.09-0.32,1.06-1.09c-0.04-1.12-0.05-2.24,0.01-3.35
	c0.06-1.03-0.32-1.4-1.38-1.38C177.27,132.65,173.91,132.62,170.55,132.61z"/>
<path class="st0" d="M131.95,117.85c0,6.87-0.03,13.73,0.03,20.6c0.01,1.22-0.36,1.56-1.57,1.56c-7.68-0.05-15.36-0.02-23.04-0.03
	c-1.46,0-1.56-0.08-1.56-1.57c0-13.73,0.01-27.46-0.02-41.19c0-1.12,0.31-1.51,1.49-1.5c7.72,0.05,15.44,0.05,23.16,0
	c1.21-0.01,1.55,0.32,1.54,1.54C131.92,104.12,131.95,110.98,131.95,117.85z M119.86,117.78c0,6.42,0,12.84-0.01,19.26
	c0,0.73,0.01,1.38,1.01,1.37c2.76-0.02,5.51,0,8.27-0.02c0.88-0.01,1.36-0.37,1.35-1.38c-0.03-12.8-0.03-25.6,0-38.41
	c0-1.11-0.44-1.46-1.51-1.44c-2.56,0.05-5.12,0.07-7.67-0.01c-1.16-0.04-1.49,0.33-1.48,1.48
	C119.89,105.02,119.86,111.4,119.86,117.78z M118.02,117.81c0-6.42-0.01-12.84,0.02-19.26c0-0.99-0.23-1.42-1.34-1.39
	c-2.6,0.08-5.2,0.08-7.79,0c-1.25-0.04-1.56,0.42-1.56,1.59c0.03,12.64,0.02,25.28,0.02,37.93c0,1.63,0.1,1.73,1.8,1.74
	c2.44,0.01,4.88-0.04,7.31,0.02c1.22,0.03,1.57-0.43,1.56-1.61C117.99,130.49,118.02,124.15,118.02,117.81z"/>
<path class="st0" d="M75.58,78.82c1.4,0.85,2.66,1.63,3.92,2.39c5.98,3.62,11.97,7.24,17.95,10.86c1.02,0.61,2.02,1.26,3.04,1.85
	c0.81,0.47,1.09,1.12,1.07,2.06c-0.05,3.59-0.02,7.18-0.02,10.78c0,10.5,0,21,0,31.5c0,1.72-0.01,1.72-1.74,1.73
	c-7.6,0-15.2-0.02-22.8,0.02c-1.14,0.01-1.51-0.3-1.51-1.47c0.03-19.48,0.02-38.96,0.02-58.44C75.51,79.74,75.55,79.39,75.58,78.82z
	 M76.96,110.12c0,8.9,0,17.79,0,26.69c0,1.39,0.19,1.61,1.59,1.61c6.68,0.01,13.35-0.01,20.03,0.02c1.07,0,1.46-0.37,1.45-1.47
	c-0.03-13.44-0.03-26.89,0-40.33c0-1-0.41-1.51-1.22-1.96c-2.09-1.17-4.18-2.36-6.22-3.61c-4.62-2.81-9.2-5.68-13.81-8.5
	c-1.63-0.99-1.81-0.85-1.81,1.11C76.96,92.48,76.96,101.3,76.96,110.12z"/>
<path d="M200.12,179.34c-0.55,0.48-1.02,0.88-1.47,1.3c-1.91,1.77-4.12,1.66-6.28,0.76c-1.73-0.73-2.42-2.36-2.43-4.16
	c-0.02-2.33-0.46-4.71,0.52-6.97c0.54-1.25,1.5-2.04,2.84-2.2c1.66-0.2,3.33-0.32,5-0.36c0.85-0.02,1.23-0.2,1.19-1.14
	c-0.07-1.63,0-3.27-0.03-4.91c-0.03-1.62-0.94-2.58-2.56-2.66c-1.4-0.08-2.94-0.24-3.64,1.34c-0.33,0.75-0.32,1.68-0.33,2.53
	c-0.01,0.8-0.22,1.17-1.09,1.13c-0.79-0.03-1.62,0.08-1.51-1.08c0.11-1.18,0.13-2.4,0.47-3.52c0.54-1.76,2.18-2.2,3.75-2.64
	c1.91-0.53,6.07,0.17,6.89,2.22c0.42,1.05,0.83,2.2,0.84,3.31c0.08,5.91,0.04,11.81,0.03,17.72c0,0.35,0.02,0.85-0.19,1.01
	c-0.24,0.19-0.9,0.23-1.05,0.06C200.7,180.65,200.5,180.06,200.12,179.34z M199.73,173.68c-0.08-0.02-0.16-0.03-0.25-0.05
	c0-0.88-0.01-1.75,0-2.63c0.01-0.67-0.2-1.03-0.96-0.99c-1.15,0.05-2.31-0.01-3.47,0.03c-1.41,0.04-2.49,1.04-2.55,2.45
	c-0.06,1.59-0.11,3.19,0.02,4.78c0.11,1.4,1.11,2.35,2.47,2.35c1.77-0.01,3.18-0.7,3.9-2.21
	C199.42,176.28,199.47,174.93,199.73,173.68z"/>
<path d="M130.02,169.28c0-2.47-0.07-4.95,0.02-7.42c0.07-1.99,0.79-3.71,2.8-4.54c2.71-1.11,5.44-1.05,7.97,0.42
	c1.53,0.89,1.97,2.57,1.98,4.25c0.05,4.83,0.06,9.65,0,14.48c-0.02,2.04-0.68,3.86-2.7,4.79c-2.5,1.16-6.54,1.03-8.49-0.83
	c-1.09-1.04-1.56-2.37-1.57-3.85C130,174.15,130.02,171.72,130.02,169.28z M132.87,169.25c0,2.59-0.04,5.19,0.03,7.78
	c0.02,0.57,0.28,1.28,0.68,1.67c1.34,1.31,3.07,1.07,4.64,0.69c1.62-0.4,1.88-1.86,1.88-3.34c-0.01-4.55,0-9.1-0.01-13.65
	c0-0.36-0.05-0.72-0.08-1.07c-0.09-1.07-0.66-1.95-1.66-2.09c-1.3-0.18-2.69-0.16-3.98,0.07c-1,0.18-1.51,1.06-1.51,2.16
	C132.89,164.07,132.87,166.66,132.87,169.25z"/>
<path d="M90.81,174.66c0.69,3.19-0.02,5.42-2.23,6.56c-2.71,1.4-8.01,1.11-9.35-2.27c-0.16-0.39-0.32-0.81-0.32-1.22
	c-0.02-5.62,0.01-11.24-0.04-16.86c-0.01-1.52,1.82-3.45,3.45-3.88c2.31-0.61,4.46-0.45,6.56,0.56c1.13,0.54,1.95,1.53,2,2.74
	c0.12,3.18,0.04,6.36,0.04,9.74c-1.33,0-2.64,0-3.94,0c-1.48,0-2.96,0.03-4.43-0.01c-0.76-0.02-1.12,0.24-1.12,1
	c0.01,1.95-0.05,3.91,0.04,5.86c0.07,1.68,1.18,2.65,2.9,2.69c0.75,0.02,1.55,0.06,2.26-0.14c1.21-0.34,1.85-1.42,1.88-2.86
	C88.54,174.39,88.54,174.39,90.81,174.66z M88.49,164.13c0,0-0.01,0-0.01,0c0-0.84,0.02-1.68-0.01-2.51
	c-0.05-1.43-1.01-2.46-2.44-2.61c-0.63-0.06-1.28-0.06-1.91-0.02c-1.58,0.11-2.6,1.08-2.67,2.67c-0.08,1.71-0.02,3.43-0.04,5.14
	c-0.01,0.61,0.25,0.86,0.86,0.86c1.76-0.01,3.52-0.02,5.28,0c0.72,0.01,0.99-0.31,0.95-1.02C88.46,165.81,88.49,164.97,88.49,164.13
	z"/>
<path d="M227.39,169.16c0-2.51-0.02-5.03,0.01-7.54c0.03-2.76,1.01-3.77,3.87-4.68c2.18-0.69,4.15-0.25,6.08,0.62
	c1.26,0.57,2.05,1.69,2.11,3.09c0.11,2.83,0.08,5.66,0.12,8.49c0.01,0.77-0.44,0.9-1.09,0.89c-2.4-0.02-4.8,0.04-7.19-0.03
	c-1.07-0.03-1.41,0.39-1.38,1.4c0.05,1.71,0,3.43,0.02,5.15c0.02,1.96,1.05,3.01,3.05,3.01c0.82,0,1.71-0.03,2.43-0.34
	c1.41-0.61,1.68-1.92,1.57-3.32c-0.08-1.03,0.3-1.42,1.37-1.37c0.85,0.04,1.23,0.27,1.24,1.16c0.02,2.22-0.19,4.29-2.46,5.5
	c-2.45,1.3-6.83,0.98-8.43-0.81c-0.82-0.91-1.32-1.95-1.31-3.21C227.41,174.5,227.39,171.83,227.39,169.16
	C227.39,169.16,227.39,169.16,227.39,169.16z M229.93,164.11c0,0-0.01,0-0.01,0c0,0.84,0.04,1.68-0.01,2.51
	c-0.05,0.79,0.3,1.06,1.05,1.05c1.68-0.02,3.35-0.03,5.03,0c0.81,0.02,1.03-0.34,1.01-1.08c-0.04-1.55,0.01-3.11-0.03-4.66
	c-0.01-0.46-0.13-0.95-0.33-1.37c-0.89-1.91-2.62-1.67-4.25-1.55c-1.46,0.11-2.4,1.13-2.46,2.58
	C229.9,162.44,229.93,163.27,229.93,164.11z"/>
<path d="M211.38,169.33c0,2.47-0.02,4.95,0.01,7.42c0.02,1.81,1.01,2.76,2.83,2.82c0.4,0.01,0.8,0.01,1.2,0
	c1.76-0.06,2.83-1.06,2.9-2.82c0.06-1.47,0-2.95,0.03-4.43c0.01-0.66-0.26-0.96-0.91-0.94c-0.72,0.01-1.44-0.02-2.16,0
	c-0.92,0.03-1.04-0.57-1.03-1.26c0.01-0.67,0.21-1.12,1.05-1.09c1.56,0.05,3.12,0.05,4.68,0c0.81-0.02,1.04,0.34,1.04,1.07
	c-0.02,2.15-0.03,4.31-0.01,6.47c0.04,3.22-1.67,4.74-4.5,5.29c-1.82,0.35-3.72,0.22-5.43-0.76c-1.23-0.71-2.13-1.7-2.17-3.15
	c-0.12-4.19-0.18-8.37-0.21-12.56c-0.01-1.67,0.07-3.35,0.23-5.01c0.17-1.71,1.63-2.97,3.31-3.39c1.7-0.43,3.31-0.44,5.02-0.02
	c1.94,0.48,3.52,1.98,3.68,3.96c0.05,0.64,0.01,1.28,0.07,1.91c0.09,1.03-0.5,1.15-1.34,1.14c-0.83,0-1.39-0.09-1.34-1.13
	c0.08-1.46,0.06-3.09-1.64-3.57c-1.16-0.33-2.52-0.24-3.73-0.02c-1.06,0.19-1.57,1.15-1.57,2.27c0,2.59,0,5.19,0,7.78
	C211.39,169.33,211.39,169.33,211.38,169.33z"/>
<path class="st1" d="M72.41,162.46c0,0.48,0,0.76,0,1.04c-0.01,1.38-0.9,2.02-2.15,1.45c-0.27-0.12-0.47-0.61-0.5-0.96
	c-0.09-0.79-0.01-1.6-0.08-2.39c-0.16-1.68-1.02-2.5-2.7-2.62c-0.16-0.01-0.32-0.02-0.48-0.02c-1.41-0.05-2.76,0.07-3.46,1.55
	c-0.57,1.21-0.14,3.45,0.9,4.46c2.08,2.03,4.16,4.08,6.32,6.03c2.53,2.28,2.89,5.52,1.73,8.47c-0.68,1.74-2.45,2.26-4.07,2.39
	c-1.62,0.13-3.33-0.12-4.93-0.47c-1.57-0.35-2.89-2.51-2.98-4.41c-0.03-0.64-0.02-1.28-0.02-1.92c0-1.38,1.14-2.08,2.43-1.43
	c0.21,0.1,0.36,0.49,0.38,0.76c0.05,0.79,0.01,1.6,0.04,2.39c0.06,1.71,1.06,2.73,2.79,2.76c0.9,0.01,1.9,0.07,2.69-0.28
	c2.07-0.89,2.38-3.76,0.63-5.66c-1.47-1.59-3.09-3.04-4.63-4.57c-1.04-1.04-2.11-2.05-3.04-3.18c-1.78-2.16-1.82-5.97,0.28-7.74
	c1.81-1.52,4.07-1.85,6.39-1.33c1.21,0.27,2.47,0.49,3.32,1.61C72.23,159.68,72.45,161.12,72.41,162.46z"/>
<path d="M157.44,175.86c0-0.24,0-0.48,0-0.72c0-1.68,0.01-1.65,1.66-1.6c0.66,0.02,0.97,0.23,0.95,0.9c-0.02,0.56,0,1.12,0.01,1.68
	c0.02,2.42,1.07,3.48,3.52,3.46c0.7,0,1.46-0.03,2.1-0.28c2.41-0.94,2.06-4.03,0.6-5.65c-1.44-1.61-3.07-3.04-4.6-4.57
	c-0.92-0.92-1.85-1.84-2.73-2.81c-1.6-1.78-2.03-4.97-0.91-7.05c0.65-1.2,1.68-1.92,3.06-2.22c1.57-0.34,3.04-0.44,4.67-0.08
	c2.9,0.63,3.68,2.27,4.01,5.03c0.06,0.51-0.02,1.04,0.02,1.56c0.1,1.13-0.34,1.58-1.52,1.54c-0.98-0.03-1.41-0.31-1.31-1.31
	c0.06-0.55-0.01-1.12,0.01-1.68c0.07-1.33-0.38-2.44-1.69-2.84c-1.47-0.45-3.05-0.6-4.33,0.48c-1.04,0.89-1.23,2.21-0.71,3.41
	c0.44,1.01,1.14,1.98,1.92,2.77c1.8,1.84,3.7,3.6,5.61,5.32c2.79,2.51,2.93,7.85,0.67,9.34c-0.86,0.57-1.82,1.12-2.81,1.3
	c-1.88,0.35-3.83,0.28-5.61-0.55C158.12,180.39,157.44,178.83,157.44,175.86z"/>
<path class="st0" d="M135.58,126.39c0-3.99,0.03-7.98-0.02-11.97c-0.01-1,0.32-1.31,1.3-1.31c5.2,0.04,10.39,0.04,15.59,0
	c1.08-0.01,1.34,0.38,1.34,1.4c-0.03,7.98-0.02,15.96-0.02,23.93c0,0.16,0.06,0.36-0.02,0.47c-0.24,0.36-0.53,0.68-0.79,1.02
	c-0.21-0.33-0.58-0.66-0.59-1c-0.06-1.71-0.03-3.43-0.03-5.14c0-2.12-0.01-2.13-2.15-2.13c-3.84,0-7.68,0.03-11.51-0.02
	c-1.05-0.01-1.44,0.34-1.41,1.37c0.04,1.87,0.01,3.75,0.01,5.62c0,0.62-0.02,1.32-0.85,1.3c-0.78-0.03-0.84-0.69-0.84-1.33
	C135.59,134.53,135.58,130.46,135.58,126.39z M137.28,122.45c0,2.19,0.01,4.39,0,6.58c-0.01,0.83,0.29,1.19,1.2,1.18
	c4.16-0.04,8.31-0.04,12.47-0.01c1.03,0.01,1.43-0.37,1.42-1.4c-0.03-4.23-0.03-8.45,0-12.68c0.01-1.11-0.38-1.57-1.54-1.56
	c-4.08,0.05-8.15,0.05-12.23,0c-1.02-0.01-1.33,0.38-1.32,1.31C137.29,118.07,137.28,120.26,137.28,122.45z"/>
<path d="M118.26,177.36c0.38-1.6,0.78-3.2,1.14-4.8c0.75-3.35,1.48-6.7,2.22-10.05c0.28-1.28,0.56-2.57,0.81-3.86
	c0.27-1.39,1.12-1.96,2.41-1.48c0.25,0.09,0.52,0.7,0.46,1c-0.89,3.95-1.87,7.88-2.77,11.83c-0.6,2.63-1.1,5.28-1.65,7.92
	c-0.18,0.89-0.31,1.79-0.56,2.66c-0.09,0.33-0.44,0.8-0.71,0.82c-1.03,0.09-2.08,0.08-3.11-0.01c-0.22-0.02-0.52-0.48-0.59-0.78
	c-0.69-3.09-1.32-6.19-2.02-9.27c-0.69-3.05-1.44-6.08-2.15-9.12c-0.28-1.2-0.54-2.41-0.79-3.61c-0.13-0.6-0.45-1.36,0.56-1.47
	c0.8-0.09,1.71-0.27,1.96,0.97c0.46,2.27,0.98,4.54,1.49,6.8c0.75,3.33,1.51,6.66,2.28,9.98c0.2,0.85,0.43,1.68,0.65,2.52
	C118.02,177.4,118.14,177.38,118.26,177.36z"/>
<path d="M176.11,167.62c0-2.95-0.01-5.9,0-8.86c0-1.56,0.11-1.66,1.61-1.66c1.8,0,3.6,0.01,5.4-0.01c0.88-0.01,1.33,0.33,1.32,1.27
	c-0.01,0.95-0.56,1.11-1.34,1.1c-1.12-0.02-2.24-0.06-3.35,0.04c-0.33,0.03-0.69,0.47-0.89,0.81c-0.14,0.24-0.06,0.62-0.06,0.94
	c0,5.03,0,10.05,0,15.08c0,0.36,0.02,0.72,0.05,1.07c0.15,1.5,0.78,2.17,2.01,2.17c1.09-0.01,1.92-0.87,2.01-2.21
	c0.07-1.15,0.06-2.31,0.03-3.47c-0.02-0.83,0.23-1.25,1.16-1.22c0.89,0.03,1.49,0.2,1.41,1.26c-0.14,1.74-0.08,3.51-0.42,5.2
	c-0.51,2.51-3.58,3.29-5.68,2.65c-1.93-0.59-3.07-1.94-3.1-4c-0.05-3.39-0.01-6.78-0.01-10.17
	C176.2,167.62,176.16,167.62,176.11,167.62z"/>
<path d="M100.01,159.26c0.97-0.82,1.79-1.69,2.78-2.29c1.93-1.17,5.51,0.49,5.61,3.37c0.03,0.84-0.01,1.68,0.05,2.51
	c0.06,0.92-0.37,1.13-1.21,1.15c-0.96,0.03-1.42-0.22-1.32-1.26c0.06-0.63,0.14-1.33-0.07-1.9c-0.24-0.66-0.68-1.55-1.22-1.71
	c-0.67-0.19-1.71,0.04-2.27,0.49c-0.65,0.53-1.16,1.44-1.37,2.27c-0.3,1.18-0.37,2.44-0.38,3.67c-0.04,4.82-0.04,9.65,0,14.47
	c0.01,1.05-0.25,1.47-1.41,1.46c-1.14-0.01-1.3-0.49-1.3-1.45c0.03-7.18,0-14.36,0.03-21.53c0-0.45,0.3-0.91,0.46-1.36
	c0.36,0.35,0.77,0.66,1.07,1.05C99.74,158.55,99.88,158.98,100.01,159.26z"/>
<path class="st2" d="M205.59,138.42c-4.96,0-9.91,0-14.87,0c-2.35,0-2.35,0-2.35-2.27c0-1.79,0-3.59,0-5.38
	c0-1.48,0.16-1.65,1.65-1.65c5.8-0.01,11.59,0,17.39,0c4.6,0,9.19,0,13.79,0c1.55,0,1.7,0.17,1.71,1.73c0,1.99,0.01,3.99,0,5.98
	c0,1.38-0.19,1.59-1.61,1.59c-5,0.01-9.99,0.01-14.99,0.01C206.07,138.42,205.83,138.42,205.59,138.42z M205.82,135.07
	c0.51-0.67,1.02-1.06,0.97-1.36c-0.06-0.38-0.58-0.68-0.9-1.01c-0.33,0.33-0.83,0.61-0.92,1
	C204.9,133.97,205.37,134.38,205.82,135.07z"/>
<path class="st2" d="M205.6,117.08c-5.19,0-10.39,0-15.58,0c-1.55,0-1.65-0.11-1.65-1.61c0-2.07,0.04-4.15-0.02-6.22
	c-0.03-1.01,0.43-1.37,1.35-1.35c0.24,0,0.48,0,0.72,0c10.15,0,20.3,0,30.45,0c1.99,0,2.04,0.04,2.04,1.99
	c0,1.91-0.04,3.83,0.02,5.74c0.03,1.11-0.43,1.47-1.49,1.47C216.15,117.06,210.88,117.08,205.6,117.08z M205.37,114.1
	c0.47-0.7,0.94-1.09,0.91-1.44c-0.03-0.36-0.54-0.68-0.85-1.02c-0.33,0.31-0.88,0.59-0.92,0.94
	C204.47,112.94,204.92,113.36,205.37,114.1z"/>
<path class="st2" d="M205.58,127.64c-5.24,0-10.47-0.03-15.71,0.02c-1.12,0.01-1.58-0.28-1.53-1.47c0.08-2.03,0.02-4.07,0.02-6.1
	c0-1.43,0.1-1.53,1.59-1.53c8.35-0.01,16.71,0,25.06,0c2.16,0,4.32,0.03,6.47-0.01c1.01-0.02,1.45,0.34,1.42,1.4
	c-0.05,2.11-0.06,4.23,0,6.34c0.03,1.05-0.36,1.39-1.4,1.38C216.21,127.62,210.89,127.64,205.58,127.64z M212.96,122.97
	c0,3.1-0.35,2.62,2.64,2.6c0.4,0,0.8-0.54,1.2-0.82c-0.37-0.2-0.74-0.55-1.12-0.56c-0.93-0.03-1.29-0.45-1.25-1.34
	c0.02-0.51,0.06-1.05-0.06-1.54c-0.06-0.25-0.46-0.57-0.71-0.58c-0.22-0.01-0.62,0.34-0.67,0.58
	C212.89,121.85,212.96,122.42,212.96,122.97z M205.86,120.84c-1.13-0.38-1.52-0.01-1.47,0.96c0.03,0.48,0,0.96,0,1.44
	c0.04,2.72-0.35,2.35,2.46,2.38c0.62,0.01,1.45,0.14,1.37-0.81c-0.02-0.24-0.8-0.58-1.25-0.61c-0.82-0.05-1.16-0.36-1.12-1.17
	C205.89,122.31,205.86,121.59,205.86,120.84z M195.76,123.1c-0.03,2.6-0.03,2.6,2.59,2.52c0.04,0,0.09,0.02,0.12,0
	c0.33-0.23,0.86-0.41,0.95-0.72c0.2-0.68-0.38-0.75-0.89-0.73c-1.02,0.04-1.31-0.54-1.31-1.42c0-0.44,0.06-0.91-0.08-1.3
	c-0.11-0.3-0.48-0.5-0.74-0.75c-0.21,0.25-0.56,0.47-0.61,0.74C195.69,121.97,195.76,122.54,195.76,123.1z"/>
<path class="st2" d="M205.73,106.36c-5.24,0-10.48,0-15.72,0c-1.59,0-1.64-0.06-1.65-1.59c0-2.12,0.03-4.23-0.01-6.34
	c-0.02-0.94,0.35-1.26,1.27-1.26c10.68,0.02,21.35,0.02,32.03,0c0.95,0,1.27,0.39,1.26,1.29c-0.03,2.15-0.06,4.31,0.01,6.46
	c0.04,1.13-0.42,1.46-1.48,1.45C216.2,106.35,210.97,106.36,205.73,106.36z M212.94,104.09c1.14,0,2.06,0.06,2.96-0.03
	c0.32-0.03,0.62-0.41,0.92-0.64c-0.27-0.32-0.55-0.92-0.82-0.92c-1.47,0.02-1.71-0.8-1.56-1.99c0.03-0.23,0.08-0.52-0.03-0.7
	c-0.15-0.25-0.46-0.61-0.66-0.59c-0.29,0.03-0.76,0.36-0.77,0.58C212.9,101.19,212.94,102.57,212.94,104.09z M205.86,98.92
	c-0.68,0.31-1.37,0.47-1.38,0.66c-0.09,1.48-0.05,2.97-0.05,4.5c1.17,0,2.13,0.05,3.08-0.03c0.28-0.02,0.73-0.39,0.75-0.63
	c0.02-0.28-0.28-0.67-0.55-0.87c-0.23-0.17-0.61-0.15-0.92-0.16c-0.7-0.03-0.98-0.35-0.93-1.06
	C205.9,100.67,205.86,100.01,205.86,98.92z M199.36,104c0.16-0.75,0.34-1.53-0.72-1.55c-1.27-0.02-1.55-0.69-1.44-1.77
	c0.03-0.31,0.06-0.67-0.06-0.94c-0.1-0.23-0.42-0.5-0.65-0.51c-0.23-0.01-0.67,0.29-0.67,0.46c-0.02,1.39,0.03,2.77,0.07,4.16
	c1.01,0.08,2.02,0.16,3.03,0.23C199.02,104.09,199.14,104.04,199.36,104z"/>
<path class="st2" d="M169.81,108.92c0,6.82,0,13.65,0,20.47c0,1.68-0.08,1.76-1.76,1.76c-2.56,0-5.12-0.03-7.68,0.01
	c-1,0.02-1.46-0.31-1.46-1.36c0.02-10.65,0-21.31,0.05-31.96c0-0.63,0.39-1.4,0.84-1.86c2.84-2.91,5.74-5.76,8.64-8.61
	c0.28-0.27,0.69-0.41,1.04-0.6c0.11,0.4,0.32,0.8,0.32,1.2C169.82,94.95,169.81,101.94,169.81,108.92z M167.15,112.68
	c-0.32-0.58-0.57-1.04-0.83-1.5c-0.2,0.48-0.54,0.97-0.55,1.45c0,0.5,0.33,0.99,0.52,1.49
	C166.57,113.68,166.83,113.23,167.15,112.68z"/>
<path class="st2" d="M171.76,86.64c0.74,0.7,1.49,1.38,2.2,2.09c2.5,2.49,5.01,4.97,7.47,7.49c0.32,0.33,0.53,0.91,0.53,1.37
	c0.03,10.81,0.01,21.62,0.04,32.44c0,0.93-0.37,1.14-1.22,1.13c-2.64-0.04-5.28-0.01-7.92-0.01c-1.53,0-1.58-0.05-1.58-1.65
	c0-4.91,0-9.82,0-14.72c0-8.78,0-17.56,0-26.33c0-0.54,0.07-1.08,0.11-1.62C171.52,86.76,171.64,86.7,171.76,86.64z M174.33,98.23
	c0,1.16,0,2.19,0,3.22c0,2.96-0.17,2.58,2.53,2.58c0.73,0,1.82,0.33,1.83-0.89c0.01-1.17-1.05-0.84-1.74-0.83
	c-0.82,0.01-1.15-0.28-1.11-1.11c0.05-0.98,0.01-1.96,0.01-2.96C175.3,98.23,174.92,98.23,174.33,98.23z M174.35,112.03
	C174.35,112.03,174.35,112.03,174.35,112.03c-0.01,0.72-0.07,1.44,0.02,2.14c0.04,0.31,0.38,0.8,0.62,0.83
	c0.99,0.1,1.99,0.1,2.98,0.01c0.27-0.03,0.49-0.51,0.74-0.78c-0.27-0.23-0.5-0.52-0.81-0.68c-0.23-0.11-0.55-0.07-0.82-0.06
	c-0.92,0.03-1.29-0.4-1.23-1.31c0.05-0.75,0.07-1.52-0.03-2.26c-0.03-0.26-0.45-0.66-0.69-0.65c-0.26,0-0.7,0.37-0.74,0.63
	C174.29,110.59,174.35,111.32,174.35,112.03z M176.51,126.01c0-0.01,0-0.02,0-0.03c0.48,0,0.99,0.09,1.43-0.03
	c0.3-0.09,0.52-0.48,0.77-0.74c-0.27-0.22-0.52-0.59-0.82-0.64c-2.03-0.33-2.03-0.31-2.03-2.42c0-0.24,0.08-0.52-0.02-0.71
	c-0.19-0.4-0.47-0.76-0.72-1.14c-0.26,0.36-0.72,0.7-0.76,1.08c-0.1,1.11,0.01,2.23-0.05,3.35c-0.05,1.02,0.4,1.38,1.36,1.29
	C175.95,125.99,176.23,126.01,176.51,126.01z"/>
<path class="st2" d="M170.55,132.61c3.36,0,6.71,0.03,10.07-0.02c1.06-0.02,1.43,0.35,1.38,1.38c-0.06,1.11-0.04,2.23-0.01,3.35
	c0.02,0.77-0.32,1.1-1.06,1.09c-0.88-0.01-1.76,0.01-2.64,0.01c-5.79,0-11.59,0-17.38,0c-1.85,0-1.97-0.14-1.98-1.98
	c0-0.76,0.03-1.52-0.01-2.27c-0.06-1.12,0.42-1.58,1.56-1.56C163.84,132.64,167.2,132.61,170.55,132.61z M170.33,136.04
	C170.33,136.04,170.33,136.04,170.33,136.04c0.28,0,0.58,0.07,0.83-0.01c0.29-0.09,0.53-0.32,0.8-0.49
	c-0.25-0.19-0.48-0.49-0.76-0.54c-0.5-0.09-1.04-0.09-1.54,0c-0.26,0.05-0.48,0.36-0.72,0.56c0.23,0.16,0.43,0.37,0.68,0.47
	C169.83,136.1,170.09,136.04,170.33,136.04z"/>
<path class="st3" d="M119.86,117.78c0-6.38,0.03-12.76-0.02-19.14c-0.01-1.15,0.31-1.52,1.48-1.48c2.56,0.08,5.12,0.06,7.67,0.01
	c1.06-0.02,1.51,0.33,1.51,1.44c-0.02,12.8-0.02,25.6,0,38.41c0,1.02-0.47,1.38-1.35,1.38c-2.76,0.02-5.51,0-8.27,0.02
	c-1.01,0.01-1.01-0.64-1.01-1.37C119.87,130.62,119.86,124.2,119.86,117.78z M122.82,119.1c0.15,0,0.3,0,0.45,0.01
	c0.22-0.34,0.67-0.73,0.62-1.02c-0.06-0.37-0.54-0.67-0.83-1c-0.32,0.28-0.88,0.56-0.89,0.86
	C122.16,118.32,122.59,118.72,122.82,119.1z"/>
<path class="st3" d="M118.02,117.81c0,6.34-0.03,12.68,0.02,19.02c0.01,1.18-0.33,1.64-1.56,1.61c-2.44-0.07-4.87-0.01-7.31-0.02
	c-1.7-0.01-1.8-0.11-1.8-1.74c0-12.64,0.01-25.28-0.02-37.93c0-1.17,0.31-1.63,1.56-1.59c2.59,0.09,5.2,0.08,7.79,0
	c1.11-0.03,1.34,0.4,1.34,1.39C118,104.97,118.02,111.39,118.02,117.81z M114.77,109.13c0.44-1.15,0.06-1.59-0.97-1.46
	c-1.19,0.16-1.57-0.43-1.54-1.51c0.02-0.68,0.09-1.37-0.05-2.02c-0.08-0.35-0.55-0.61-0.85-0.91c-0.28,0.31-0.77,0.61-0.79,0.94
	c-0.09,1.35-0.04,2.7-0.03,4.05c0,0.64,0.31,0.92,0.97,0.9C112.57,109.1,113.64,109.13,114.77,109.13z M110.52,128.27
	c0.05,3.1-0.45,2.84,2.89,2.86c0.28,0,0.62,0.09,0.82-0.04c0.3-0.19,0.61-0.52,0.67-0.84c0.03-0.16-0.44-0.59-0.72-0.63
	c-1.92-0.25-1.93-0.22-1.93-2.13c0-0.24,0-0.48,0-0.72c0.01-0.59-0.02-1.12-0.84-1.13c-0.8-0.01-0.91,0.45-0.89,1.08
	C110.53,127.23,110.52,127.75,110.52,128.27z M112.87,120.09c0.52,0,1.04,0.05,1.55-0.02c0.2-0.03,0.45-0.31,0.5-0.52
	c0.05-0.23-0.03-0.63-0.19-0.73c-0.24-0.15-0.61-0.18-0.92-0.14c-1.25,0.17-1.64-0.45-1.56-1.58c0.04-0.55,0.1-1.14-0.04-1.66
	c-0.1-0.35-0.53-0.61-0.81-0.91c-0.29,0.29-0.78,0.55-0.84,0.88c-0.13,0.77-0.05,1.58-0.05,2.38
	C110.52,120.11,110.52,120.11,112.87,120.09z"/>
<path class="st3" d="M76.96,110.12c0-8.82,0-17.63,0-26.45c0-1.96,0.19-2.1,1.81-1.11c4.62,2.81,9.2,5.68,13.81,8.5
	c2.05,1.25,4.13,2.44,6.22,3.61c0.81,0.45,1.22,0.97,1.22,1.96c-0.03,13.44-0.03,26.89,0,40.33c0,1.1-0.38,1.48-1.45,1.47
	c-6.68-0.02-13.35-0.01-20.03-0.02c-1.4,0-1.59-0.22-1.59-1.61C76.96,127.91,76.96,119.01,76.96,110.12z M84.81,97.7
	c0-1.15,0.07-2.11-0.04-3.05c-0.04-0.35-0.5-0.64-0.77-0.96c-0.26,0.32-0.72,0.62-0.75,0.96c-0.1,1.14-0.02,2.3-0.05,3.45
	c-0.02,1.06,0.41,1.54,1.51,1.41c0.55-0.07,1.11,0,1.67-0.01c1.36-0.02,1.54-0.29,1.16-1.8C86.72,97.7,85.86,97.7,84.81,97.7z
	 M85.41,110.55c0.36,0,0.72,0,1.07,0c0.61,0.01,1.37,0.02,1.22-0.82c-0.07-0.38-0.75-0.67-1.19-0.94c-0.14-0.09-0.39-0.03-0.59-0.02
	c-0.8,0.08-1.18-0.24-1.12-1.08c0.05-0.67,0.1-1.37-0.03-2.02c-0.07-0.35-0.51-0.62-0.79-0.93c-0.26,0.28-0.72,0.54-0.74,0.84
	c-0.08,1.3-0.04,2.62-0.02,3.93c0.01,0.78,0.41,1.15,1.22,1.05C84.77,110.51,85.09,110.55,85.41,110.55z M83.21,118.62
	c0.01,0,0.02,0,0.03,0c0,0.68-0.07,1.36,0.03,2.03c0.05,0.32,0.39,0.82,0.63,0.84c1.07,0.09,2.16,0.09,3.23-0.01
	c0.23-0.02,0.48-0.53,0.58-0.86c0.03-0.11-0.37-0.43-0.61-0.51c-0.29-0.09-0.63-0.05-0.95-0.04c-0.96,0.04-1.41-0.38-1.33-1.36
	c0.04-0.55,0.11-1.14-0.03-1.66c-0.13-0.49-0.53-0.91-0.81-1.37c-0.26,0.42-0.62,0.81-0.74,1.27
	C83.12,117.48,83.21,118.07,83.21,118.62z M87.61,130.22c-0.58,0-1.14-0.03-1.68,0.01c-0.8,0.06-1.18-0.23-1.12-1.08
	c0.05-0.71,0.08-1.44-0.03-2.14c-0.05-0.32-0.48-0.57-0.74-0.85c-0.27,0.26-0.69,0.48-0.78,0.79c-0.14,0.48-0.06,1.02-0.06,1.54
	c0.04,3.84-0.42,3.2,3.44,3.27C87.63,131.77,87.95,131.34,87.61,130.22z M95.49,115.39c0.6,0.54,0.97,1.12,1.27,1.08
	c0.37-0.04,0.68-0.59,1.01-0.92c-0.33-0.32-0.62-0.77-1.02-0.9C96.51,114.58,96.11,115.01,95.49,115.39z"/>
<path class="st2" d="M137.28,122.45c0-2.19,0.02-4.39-0.01-6.58c-0.01-0.93,0.3-1.33,1.32-1.31c4.07,0.05,8.15,0.05,12.23,0
	c1.16-0.01,1.55,0.45,1.54,1.56c-0.03,4.23-0.03,8.45,0,12.68c0.01,1.03-0.39,1.41-1.42,1.4c-4.16-0.03-8.31-0.04-12.47,0.01
	c-0.91,0.01-1.2-0.35-1.2-1.18C137.29,126.84,137.28,124.65,137.28,122.45z M143.66,125.83c0.12-0.13,0.25-0.25,0.37-0.38
	c-0.15-0.72-0.13-1.57-0.53-2.11c-0.2-0.27-1.38-0.19-1.73,0.14c-0.34,0.32-0.45,1.48-0.18,1.7
	C142.1,125.62,142.95,125.64,143.66,125.83z M144.07,119.93c-0.12-0.13-0.24-0.25-0.35-0.38c-0.73,0.15-1.51,0.2-2.14,0.52
	c-0.18,0.09-0.13,1.25,0.16,1.48c0.42,0.34,1.47,0.57,1.7,0.33C143.85,121.42,143.88,120.6,144.07,119.93z M147.5,124.57
	c0.04-0.79-0.04-1.36-1.04-1.37c-0.96-0.01-1.13,0.47-1.11,1.27c0.02,0.69,0.04,1.24,0.99,1.25
	C147.23,125.72,147.61,125.41,147.5,124.57z M146.4,119.68c-0.82-0.19-1.06,0.24-1.05,1.04c0.01,0.79,0.23,1.28,1.14,1.28
	c0.89,0,1.01-0.54,1.03-1.24C147.55,119.99,147.33,119.51,146.4,119.68z"/>
<path class="st0" d="M205.82,135.07c-0.45-0.68-0.92-1.09-0.85-1.37c0.1-0.38,0.6-0.67,0.92-1c0.32,0.33,0.83,0.63,0.9,1.01
	C206.84,134,206.33,134.39,205.82,135.07z"/>
<path class="st0" d="M205.37,114.1c-0.45-0.74-0.9-1.16-0.86-1.52c0.04-0.34,0.59-0.63,0.92-0.94c0.3,0.34,0.82,0.66,0.85,1.02
	C206.31,113.01,205.84,113.4,205.37,114.1z"/>
<path class="st0" d="M212.96,122.97c0-0.56-0.07-1.12,0.03-1.66c0.05-0.24,0.44-0.59,0.67-0.58c0.26,0.01,0.65,0.33,0.71,0.58
	c0.12,0.49,0.09,1.03,0.06,1.54c-0.04,0.89,0.32,1.3,1.25,1.34c0.38,0.01,0.75,0.37,1.12,0.56c-0.4,0.29-0.8,0.82-1.2,0.82
	C212.61,125.6,212.96,126.07,212.96,122.97z"/>
<path class="st0" d="M205.86,120.84c0,0.75,0.03,1.47-0.01,2.18c-0.04,0.81,0.3,1.12,1.12,1.17c0.45,0.03,1.23,0.36,1.25,0.61
	c0.07,0.96-0.76,0.82-1.37,0.81c-2.81-0.03-2.42,0.35-2.46-2.38c-0.01-0.48,0.02-0.96,0-1.44
	C204.34,120.83,204.73,120.46,205.86,120.84z"/>
<path class="st0" d="M195.76,123.1c0-0.56-0.07-1.12,0.03-1.66c0.05-0.27,0.4-0.5,0.61-0.74c0.26,0.25,0.64,0.45,0.74,0.75
	c0.14,0.39,0.07,0.86,0.08,1.3c0,0.88,0.3,1.47,1.31,1.42c0.51-0.02,1.08,0.05,0.89,0.73c-0.09,0.31-0.61,0.49-0.95,0.72
	c-0.03,0.02-0.08,0-0.12,0C195.73,125.69,195.73,125.69,195.76,123.1z"/>
<path class="st0" d="M212.94,104.09c0-1.53-0.04-2.91,0.04-4.28c0.01-0.22,0.48-0.55,0.77-0.58c0.2-0.02,0.51,0.34,0.66,0.59
	c0.11,0.18,0.06,0.47,0.03,0.7c-0.15,1.19,0.09,2,1.56,1.99c0.27,0,0.55,0.6,0.82,0.92c-0.31,0.22-0.6,0.6-0.92,0.64
	C215,104.15,214.08,104.09,212.94,104.09z"/>
<path class="st0" d="M205.86,98.92c0,1.08,0.04,1.75-0.01,2.41c-0.05,0.71,0.23,1.03,0.93,1.06c0.32,0.01,0.7,0,0.92,0.16
	c0.27,0.2,0.57,0.59,0.55,0.87c-0.02,0.24-0.47,0.6-0.75,0.63c-0.95,0.08-1.9,0.03-3.08,0.03c0-1.53-0.04-3.02,0.05-4.5
	C204.49,99.39,205.19,99.24,205.86,98.92z"/>
<path class="st0" d="M199.36,104c-0.22,0.04-0.33,0.09-0.44,0.08c-1.01-0.07-2.02-0.15-3.03-0.23c-0.03-1.39-0.09-2.77-0.07-4.16
	c0-0.17,0.44-0.47,0.67-0.46c0.23,0.01,0.55,0.28,0.65,0.51c0.12,0.27,0.09,0.63,0.06,0.94c-0.11,1.08,0.17,1.75,1.44,1.77
	C199.69,102.47,199.51,103.24,199.36,104z"/>
<path class="st0" d="M167.15,112.68c-0.32,0.55-0.59,1-0.85,1.44c-0.19-0.5-0.52-0.99-0.52-1.49c0-0.49,0.35-0.97,0.55-1.45
	C166.58,111.64,166.83,112.1,167.15,112.68z"/>
<path class="st0" d="M174.33,98.23c0.59,0,0.97,0,1.53,0c0,1,0.04,1.98-0.01,2.96c-0.05,0.83,0.29,1.12,1.11,1.11
	c0.69-0.01,1.75-0.34,1.74,0.83c-0.01,1.22-1.1,0.89-1.83,0.89c-2.7,0-2.54,0.38-2.53-2.58C174.33,100.42,174.33,99.39,174.33,98.23
	z"/>
<path class="st0" d="M174.35,112.03c0-0.72-0.07-1.44,0.04-2.14c0.04-0.26,0.48-0.62,0.74-0.63c0.24,0,0.66,0.39,0.69,0.65
	c0.1,0.74,0.08,1.51,0.03,2.26c-0.06,0.91,0.31,1.34,1.23,1.31c0.28-0.01,0.6-0.05,0.82,0.06c0.31,0.15,0.54,0.44,0.81,0.68
	c-0.25,0.27-0.47,0.76-0.74,0.78c-0.99,0.09-1.99,0.09-2.98-0.01c-0.24-0.02-0.58-0.52-0.62-0.83
	C174.28,113.47,174.34,112.75,174.35,112.03C174.35,112.03,174.35,112.03,174.35,112.03z"/>
<path class="st0" d="M176.51,126.01c-0.28,0-0.56-0.02-0.84,0c-0.95,0.08-1.41-0.27-1.36-1.29c0.06-1.11-0.05-2.24,0.05-3.35
	c0.04-0.38,0.49-0.72,0.76-1.08c0.24,0.38,0.53,0.74,0.72,1.14c0.09,0.2,0.02,0.47,0.02,0.71c0,2.11,0,2.09,2.03,2.42
	c0.3,0.05,0.55,0.42,0.82,0.64c-0.25,0.26-0.47,0.65-0.77,0.74c-0.44,0.13-0.95,0.03-1.43,0.03
	C176.51,125.99,176.51,126,176.51,126.01z"/>
<path class="st0" d="M170.33,136.04c-0.24,0-0.5,0.06-0.71-0.02c-0.25-0.09-0.46-0.3-0.68-0.47c0.24-0.2,0.45-0.51,0.72-0.56
	c0.5-0.09,1.04-0.09,1.54,0c0.28,0.05,0.51,0.35,0.76,0.54c-0.26,0.17-0.51,0.39-0.8,0.49
	C170.91,136.11,170.61,136.04,170.33,136.04C170.33,136.04,170.33,136.04,170.33,136.04z"/>
<path class="st0" d="M122.82,119.1c-0.24-0.39-0.67-0.78-0.65-1.16c0.01-0.3,0.57-0.57,0.89-0.86c0.3,0.33,0.77,0.63,0.83,1
	c0.05,0.3-0.39,0.68-0.62,1.02C123.13,119.11,122.97,119.1,122.82,119.1z"/>
<path class="st0" d="M114.77,109.13c-1.12,0-2.19-0.02-3.27,0.01c-0.66,0.02-0.97-0.26-0.97-0.9c0-1.35-0.06-2.71,0.03-4.05
	c0.02-0.33,0.51-0.63,0.79-0.94c0.3,0.3,0.77,0.56,0.85,0.91c0.14,0.65,0.07,1.34,0.05,2.02c-0.03,1.07,0.35,1.66,1.54,1.51
	C114.83,107.53,115.2,107.98,114.77,109.13z"/>
<path class="st0" d="M110.52,128.27c0-0.52,0.01-1.03,0-1.55c-0.02-0.63,0.1-1.09,0.89-1.08c0.82,0.01,0.85,0.54,0.84,1.13
	c0,0.24,0,0.48,0,0.72c0,1.91,0.01,1.89,1.93,2.13c0.28,0.04,0.75,0.46,0.72,0.63c-0.07,0.32-0.38,0.64-0.67,0.84
	c-0.2,0.13-0.54,0.04-0.82,0.04C110.07,131.11,110.57,131.37,110.52,128.27z"/>
<path class="st0" d="M112.87,120.09c-2.35,0.02-2.35,0.02-2.35-2.31c0-0.8-0.08-1.6,0.05-2.38c0.05-0.33,0.54-0.59,0.84-0.88
	c0.28,0.3,0.72,0.56,0.81,0.91c0.14,0.52,0.08,1.11,0.04,1.66c-0.08,1.14,0.3,1.75,1.56,1.58c0.3-0.04,0.68-0.02,0.92,0.14
	c0.16,0.1,0.24,0.5,0.19,0.73c-0.05,0.21-0.3,0.49-0.5,0.52C113.91,120.14,113.38,120.09,112.87,120.09z"/>
<path class="st0" d="M84.81,97.7c1.05,0,1.91,0,2.73,0c0.38,1.52,0.2,1.78-1.16,1.8c-0.56,0.01-1.12-0.05-1.67,0.01
	c-1.1,0.13-1.54-0.35-1.51-1.41c0.03-1.15-0.05-2.31,0.05-3.45c0.03-0.34,0.49-0.64,0.75-0.96c0.27,0.32,0.73,0.62,0.77,0.96
	C84.89,95.59,84.81,96.55,84.81,97.7z"/>
<path class="st0" d="M85.41,110.55c-0.32,0-0.64-0.03-0.95,0.01c-0.81,0.1-1.21-0.28-1.22-1.05c-0.02-1.31-0.06-2.62,0.02-3.93
	c0.02-0.29,0.48-0.56,0.74-0.84c0.27,0.31,0.72,0.58,0.79,0.93c0.13,0.65,0.08,1.34,0.03,2.02c-0.06,0.85,0.31,1.16,1.12,1.08
	c0.2-0.02,0.45-0.07,0.59,0.02c0.44,0.28,1.12,0.57,1.19,0.94c0.16,0.85-0.61,0.83-1.22,0.82
	C86.12,110.54,85.76,110.55,85.41,110.55z"/>
<path class="st0" d="M83.21,118.62c0-0.56-0.1-1.14,0.03-1.67c0.11-0.45,0.48-0.85,0.74-1.27c0.28,0.45,0.67,0.87,0.81,1.37
	c0.14,0.52,0.07,1.11,0.03,1.66c-0.08,0.98,0.37,1.4,1.33,1.36c0.32-0.01,0.66-0.06,0.95,0.04c0.25,0.08,0.65,0.4,0.61,0.51
	c-0.1,0.33-0.35,0.84-0.58,0.86c-1.07,0.09-2.16,0.1-3.23,0.01c-0.24-0.02-0.58-0.53-0.63-0.84c-0.1-0.66-0.03-1.35-0.03-2.03
	C83.23,118.62,83.22,118.62,83.21,118.62z"/>
<path class="st0" d="M87.61,130.22c0.34,1.12,0.02,1.55-0.96,1.53c-3.86-0.07-3.4,0.57-3.44-3.27c-0.01-0.52-0.08-1.06,0.06-1.54
	c0.09-0.31,0.51-0.53,0.78-0.79c0.26,0.28,0.68,0.54,0.74,0.85c0.11,0.7,0.08,1.43,0.03,2.14c-0.06,0.85,0.31,1.14,1.12,1.08
	C86.47,130.19,87.02,130.22,87.61,130.22z"/>
<path class="st0" d="M95.49,115.39c0.62-0.38,1.02-0.81,1.26-0.73c0.39,0.12,0.68,0.58,1.02,0.9c-0.34,0.33-0.65,0.87-1.01,0.92
	C96.46,116.51,96.09,115.93,95.49,115.39z"/>
<path class="st0" d="M143.66,125.83c-0.71-0.19-1.56-0.21-2.07-0.64c-0.27-0.22-0.16-1.39,0.18-1.7c0.35-0.33,1.53-0.41,1.73-0.14
	c0.4,0.54,0.38,1.39,0.53,2.11C143.91,125.58,143.78,125.71,143.66,125.83z"/>
<path class="st0" d="M144.07,119.93c-0.19,0.67-0.22,1.49-0.64,1.95c-0.23,0.24-1.28,0.01-1.7-0.33c-0.29-0.23-0.33-1.39-0.16-1.48
	c0.64-0.32,1.42-0.37,2.14-0.52C143.83,119.68,143.95,119.8,144.07,119.93z"/>
<path class="st0" d="M147.5,124.57c0.11,0.83-0.27,1.15-1.16,1.14c-0.95-0.01-0.97-0.56-0.99-1.25c-0.02-0.8,0.15-1.27,1.11-1.27
	C147.46,123.21,147.54,123.78,147.5,124.57z"/>
<path class="st3" d="M146.4,119.68c0.94-0.17,1.15,0.3,1.12,1.07c-0.03,0.7-0.15,1.24-1.03,1.24c-0.9,0-1.12-0.48-1.14-1.28
	C145.33,119.92,145.58,119.5,146.4,119.68z"/>
<text transform="matrix(1 0 0 1 88.523 201.5494)" class="st4 st5">VISION    CHOIX   DÉCISION </text>
</svg>
