<?xml version="1.0" encoding="utf-8"?>
<!-- Generator: Adobe Illustrator 25.0.0, SVG Export Plug-In . SVG Version: 6.00 Build 0)  -->
<svg version="1.1" id="Calque_1" xmlns="http://www.w3.org/2000/svg" xmlns:xlink="http://www.w3.org/1999/xlink" x="0px" y="0px"
	 viewBox="0 0 304.3 293.7" style="enable-background:new 0 0 304.3 293.7;" xml:space="preserve">
<style type="text/css">
	.st0{fill:#FFFFFF;}
	.st1{fill:#3263AD;}
	.st2{fill:#3C60AA;}
	.st3{fill:#355DA8;}
	.st4{fill:#2A4899;}
	.st5{fill:#396CB3;}
	.st6{fill:#2E53A1;}
	.st7{fill:#355BA7;}
	.st8{fill:#2A4C9C;}
	.st9{fill:#3D4866;}
	.st10{fill:#4861A7;}
	.st11{fill:#1F7CC0;}
	.st12{font-family:'ArialMT';}
	.st13{font-size:12px;}
</style>
<path class="st0" d="M224.4,95.7c0,0.6,0,1.1,0,1.6c0,13.7,0,27.4,0,41.1c0,1.6,0,1.6-1.6,1.6c-11.4,0-22.9,0-34.3,0
	c-1.6,0-1.6,0-1.6-1.6c0-13.7,0-27.4,0-41.1c0-1.1,0.2-1.6,1.5-1.6c11.6,0.1,23.1,0,34.7,0C223.4,95.7,223.8,95.7,224.4,95.7z
	 M205.6,138.4c0.2,0,0.5,0,0.7,0c5,0,10,0,15,0c1.4,0,1.6-0.2,1.6-1.6c0-2,0-4,0-6c0-1.6-0.2-1.7-1.7-1.7c-4.6,0-9.2,0-13.8,0
	c-5.8,0-11.6,0-17.4,0c-1.5,0-1.6,0.2-1.6,1.6c0,1.8,0,3.6,0,5.4c0,2.3,0,2.3,2.4,2.3C195.7,138.4,200.6,138.4,205.6,138.4z
	 M205.6,117.1c5.3,0,10.6,0,15.8,0c1.1,0,1.5-0.4,1.5-1.5c-0.1-1.9,0-3.8,0-5.7c0-1.9,0-2-2-2c-10.1,0-20.3,0-30.4,0
	c-0.2,0-0.5,0-0.7,0c-0.9,0-1.4,0.3-1.4,1.3c0.1,2.1,0,4.2,0,6.2c0,1.5,0.1,1.6,1.6,1.6C195.2,117.1,200.4,117.1,205.6,117.1z
	 M205.6,127.6c5.3,0,10.6,0,15.9,0c1,0,1.4-0.3,1.4-1.4c-0.1-2.1-0.1-4.2,0-6.3c0-1.1-0.4-1.4-1.4-1.4c-2.2,0-4.3,0-6.5,0
	c-8.4,0-16.7,0-25.1,0c-1.5,0-1.6,0.1-1.6,1.5c0,2,0.1,4.1,0,6.1c-0.1,1.2,0.4,1.5,1.5,1.5C195.1,127.6,200.3,127.6,205.6,127.6z
	 M205.7,106.4c5.2,0,10.5,0,15.7,0c1.1,0,1.5-0.3,1.5-1.4c-0.1-2.2,0-4.3,0-6.5c0-0.9-0.3-1.3-1.3-1.3c-10.7,0-21.4,0-32,0
	c-0.9,0-1.3,0.3-1.3,1.3c0,2.1,0,4.2,0,6.3c0,1.5,0.1,1.6,1.6,1.6C195.2,106.4,200.5,106.4,205.7,106.4z"/>
<path class="st0" d="M157.5,117.8c0-6.8,0-13.6,0-20.5c0-0.6,0.1-1.3,0.5-1.6c3.9-4,7.8-7.9,11.7-11.8c0.6-0.7,1.1-0.5,1.6,0.1
	c3.8,3.8,7.6,7.6,11.4,11.4c0.4,0.5,0.8,1.3,0.8,1.9c0,13.8,0,27.5,0,41.3c0,1.1-0.4,1.4-1.5,1.4c-7.8,0-15.5,0-23.3,0
	c-1.1,0-1.4-0.4-1.4-1.4C157.5,131.7,157.5,124.7,157.5,117.8z M169.8,108.9c0-7,0-14,0-20.9c0-0.4-0.2-0.8-0.3-1.2
	c-0.4,0.2-0.8,0.3-1,0.6c-2.9,2.8-5.8,5.7-8.6,8.6c-0.4,0.5-0.8,1.2-0.8,1.9c-0.1,10.7,0,21.3-0.1,32c0,1.1,0.4,1.4,1.5,1.4
	c2.6,0,5.1,0,7.7,0c1.7,0,1.8-0.1,1.8-1.8C169.8,122.6,169.8,115.7,169.8,108.9z M171.8,86.6c-0.1,0.1-0.2,0.1-0.4,0.2
	c0,0.5-0.1,1.1-0.1,1.6c0,8.8,0,17.6,0,26.3c0,4.9,0,9.8,0,14.7c0,1.6,0,1.6,1.6,1.6c2.6,0,5.3,0,7.9,0c0.8,0,1.2-0.2,1.2-1.1
	c0-10.8,0-21.6,0-32.4c0-0.5-0.2-1-0.5-1.4c-2.5-2.5-5-5-7.5-7.5C173.2,88,172.5,87.3,171.8,86.6z M170.6,132.6c-3.4,0-6.7,0-10.1,0
	c-1.1,0-1.6,0.4-1.6,1.6c0,0.8,0,1.5,0,2.3c0,1.8,0.1,2,2,2c5.8,0,11.6,0,17.4,0c0.9,0,1.8,0,2.6,0c0.7,0,1.1-0.3,1.1-1.1
	c0-1.1-0.1-2.2,0-3.4c0.1-1-0.3-1.4-1.4-1.4C177.3,132.6,173.9,132.6,170.6,132.6z"/>
<path class="st0" d="M131.9,117.8c0,6.9,0,13.7,0,20.6c0,1.2-0.4,1.6-1.6,1.6c-7.7-0.1-15.4,0-23,0c-1.5,0-1.6-0.1-1.6-1.6
	c0-13.7,0-27.5,0-41.2c0-1.1,0.3-1.5,1.5-1.5c7.7,0.1,15.4,0.1,23.2,0c1.2,0,1.6,0.3,1.5,1.5C131.9,104.1,131.9,111,131.9,117.8z
	 M119.9,117.8c0,6.4,0,12.8,0,19.3c0,0.7,0,1.4,1,1.4c2.8,0,5.5,0,8.3,0c0.9,0,1.4-0.4,1.4-1.4c0-12.8,0-25.6,0-38.4
	c0-1.1-0.4-1.5-1.5-1.4c-2.6,0.1-5.1,0.1-7.7,0c-1.2,0-1.5,0.3-1.5,1.5C119.9,105,119.9,111.4,119.9,117.8z M118,117.8
	c0-6.4,0-12.8,0-19.3c0-1-0.2-1.4-1.3-1.4c-2.6,0.1-5.2,0.1-7.8,0c-1.2,0-1.6,0.4-1.6,1.6c0,12.6,0,25.3,0,37.9
	c0,1.6,0.1,1.7,1.8,1.7c2.4,0,4.9,0,7.3,0c1.2,0,1.6-0.4,1.6-1.6C118,130.5,118,124.1,118,117.8z"/>
<path class="st0" d="M75.6,78.8c1.4,0.8,2.7,1.6,3.9,2.4c6,3.6,12,7.2,17.9,10.9c1,0.6,2,1.3,3,1.8c0.8,0.5,1.1,1.1,1.1,2.1
	c-0.1,3.6,0,7.2,0,10.8c0,10.5,0,21,0,31.5c0,1.7,0,1.7-1.7,1.7c-7.6,0-15.2,0-22.8,0c-1.1,0-1.5-0.3-1.5-1.5c0-19.5,0-39,0-58.4
	C75.5,79.7,75.6,79.4,75.6,78.8z M77,110.1c0,8.9,0,17.8,0,26.7c0,1.4,0.2,1.6,1.6,1.6c6.7,0,13.3,0,20,0c1.1,0,1.5-0.4,1.4-1.5
	c0-13.4,0-26.9,0-40.3c0-1-0.4-1.5-1.2-2c-2.1-1.2-4.2-2.4-6.2-3.6c-4.6-2.8-9.2-5.7-13.8-8.5c-1.6-1-1.8-0.8-1.8,1.1
	C77,92.5,77,101.3,77,110.1z"/>
<path class="st1" d="M200.1,179.3c-0.6,0.5-1,0.9-1.5,1.3c-1.9,1.8-4.1,1.7-6.3,0.8c-1.7-0.7-2.4-2.4-2.4-4.2c0-2.3-0.5-4.7,0.5-7
	c0.5-1.2,1.5-2,2.8-2.2c1.7-0.2,3.3-0.3,5-0.4c0.9,0,1.2-0.2,1.2-1.1c-0.1-1.6,0-3.3,0-4.9c0-1.6-0.9-2.6-2.6-2.7
	c-1.4-0.1-2.9-0.2-3.6,1.3c-0.3,0.8-0.3,1.7-0.3,2.5c0,0.8-0.2,1.2-1.1,1.1c-0.8,0-1.6,0.1-1.5-1.1c0.1-1.2,0.1-2.4,0.5-3.5
	c0.5-1.8,2.2-2.2,3.8-2.6c1.9-0.5,6.1,0.2,6.9,2.2c0.4,1.1,0.8,2.2,0.8,3.3c0.1,5.9,0,11.8,0,17.7c0,0.4,0,0.9-0.2,1
	c-0.2,0.2-0.9,0.2-1.1,0.1C200.7,180.6,200.5,180.1,200.1,179.3z M199.7,173.7c-0.1,0-0.2,0-0.2-0.1c0-0.9,0-1.8,0-2.6
	c0-0.7-0.2-1-1-1c-1.1,0.1-2.3,0-3.5,0c-1.4,0-2.5,1-2.6,2.4c-0.1,1.6-0.1,3.2,0,4.8c0.1,1.4,1.1,2.4,2.5,2.4c1.8,0,3.2-0.7,3.9-2.2
	C199.4,176.3,199.5,174.9,199.7,173.7z"/>
<path class="st2" d="M130,169.3c0-2.5-0.1-4.9,0-7.4c0.1-2,0.8-3.7,2.8-4.5c2.7-1.1,5.4-1.1,8,0.4c1.5,0.9,2,2.6,2,4.2
	c0.1,4.8,0.1,9.6,0,14.5c0,2-0.7,3.9-2.7,4.8c-2.5,1.2-6.5,1-8.5-0.8c-1.1-1-1.6-2.4-1.6-3.9C130,174.1,130,171.7,130,169.3z
	 M132.9,169.2c0,2.6,0,5.2,0,7.8c0,0.6,0.3,1.3,0.7,1.7c1.3,1.3,3.1,1.1,4.6,0.7c1.6-0.4,1.9-1.9,1.9-3.3c0-4.6,0-9.1,0-13.6
	c0-0.4-0.1-0.7-0.1-1.1c-0.1-1.1-0.7-1.9-1.7-2.1c-1.3-0.2-2.7-0.2-4,0.1c-1,0.2-1.5,1.1-1.5,2.2
	C132.9,164.1,132.9,166.7,132.9,169.2z"/>
<path class="st3" d="M90.8,174.7c0.7,3.2,0,5.4-2.2,6.6c-2.7,1.4-8,1.1-9.3-2.3c-0.2-0.4-0.3-0.8-0.3-1.2c0-5.6,0-11.2,0-16.9
	c0-1.5,1.8-3.4,3.4-3.9c2.3-0.6,4.5-0.4,6.6,0.6c1.1,0.5,1.9,1.5,2,2.7c0.1,3.2,0,6.4,0,9.7c-1.3,0-2.6,0-3.9,0c-1.5,0-3,0-4.4,0
	c-0.8,0-1.1,0.2-1.1,1c0,1.9-0.1,3.9,0,5.9c0.1,1.7,1.2,2.6,2.9,2.7c0.8,0,1.6,0.1,2.3-0.1c1.2-0.3,1.8-1.4,1.9-2.9
	C88.5,174.4,88.5,174.4,90.8,174.7z M88.5,164.1L88.5,164.1c0-0.8,0-1.7,0-2.5c-0.1-1.4-1-2.5-2.4-2.6c-0.6-0.1-1.3-0.1-1.9,0
	c-1.6,0.1-2.6,1.1-2.7,2.7c-0.1,1.7,0,3.4,0,5.1c0,0.6,0.2,0.9,0.9,0.9c1.8,0,3.5,0,5.3,0c0.7,0,1-0.3,0.9-1
	C88.5,165.8,88.5,165,88.5,164.1z"/>
<path class="st4" d="M227.4,169.2c0-2.5,0-5,0-7.5c0-2.8,1-3.8,3.9-4.7c2.2-0.7,4.1-0.2,6.1,0.6c1.3,0.6,2.1,1.7,2.1,3.1
	c0.1,2.8,0.1,5.7,0.1,8.5c0,0.8-0.4,0.9-1.1,0.9c-2.4,0-4.8,0-7.2,0c-1.1,0-1.4,0.4-1.4,1.4c0.1,1.7,0,3.4,0,5.1c0,2,1.1,3,3.1,3
	c0.8,0,1.7,0,2.4-0.3c1.4-0.6,1.7-1.9,1.6-3.3c-0.1-1,0.3-1.4,1.4-1.4c0.9,0,1.2,0.3,1.2,1.2c0,2.2-0.2,4.3-2.5,5.5
	c-2.4,1.3-6.8,1-8.4-0.8c-0.8-0.9-1.3-1.9-1.3-3.2C227.4,174.5,227.4,171.8,227.4,169.2L227.4,169.2z M229.9,164.1L229.9,164.1
	c0,0.8,0,1.7,0,2.5c-0.1,0.8,0.3,1.1,1.1,1.1c1.7,0,3.4,0,5,0c0.8,0,1-0.3,1-1.1c0-1.6,0-3.1,0-4.7c0-0.5-0.1-0.9-0.3-1.4
	c-0.9-1.9-2.6-1.7-4.2-1.6c-1.5,0.1-2.4,1.1-2.5,2.6C229.9,162.4,229.9,163.3,229.9,164.1z"/>
<path class="st3" d="M211.4,169.3c0,2.5,0,4.9,0,7.4c0,1.8,1,2.8,2.8,2.8c0.4,0,0.8,0,1.2,0c1.8-0.1,2.8-1.1,2.9-2.8
	c0.1-1.5,0-2.9,0-4.4c0-0.7-0.3-1-0.9-0.9c-0.7,0-1.4,0-2.2,0c-0.9,0-1-0.6-1-1.3c0-0.7,0.2-1.1,1.1-1.1c1.6,0.1,3.1,0.1,4.7,0
	c0.8,0,1,0.3,1,1.1c0,2.1,0,4.3,0,6.5c0,3.2-1.7,4.7-4.5,5.3c-1.8,0.4-3.7,0.2-5.4-0.8c-1.2-0.7-2.1-1.7-2.2-3.1
	c-0.1-4.2-0.2-8.4-0.2-12.6c0-1.7,0.1-3.4,0.2-5c0.2-1.7,1.6-3,3.3-3.4c1.7-0.4,3.3-0.4,5,0c1.9,0.5,3.5,2,3.7,4
	c0.1,0.6,0,1.3,0.1,1.9c0.1,1-0.5,1.1-1.3,1.1c-0.8,0-1.4-0.1-1.3-1.1c0.1-1.5,0.1-3.1-1.6-3.6c-1.2-0.3-2.5-0.2-3.7,0
	c-1.1,0.2-1.6,1.1-1.6,2.3C211.4,164.1,211.4,166.7,211.4,169.3C211.4,169.3,211.4,169.3,211.4,169.3z"/>
<path class="st5" d="M72.4,162.5c0,0.5,0,0.8,0,1c0,1.4-0.9,2-2.2,1.4c-0.3-0.1-0.5-0.6-0.5-1c-0.1-0.8,0-1.6-0.1-2.4
	c-0.2-1.7-1-2.5-2.7-2.6c-0.2,0-0.3,0-0.5,0c-1.4-0.1-2.8,0.1-3.5,1.6c-0.6,1.2-0.1,3.4,0.9,4.5c2.1,2,4.2,4.1,6.3,6
	c2.5,2.3,2.9,5.5,1.7,8.5c-0.7,1.7-2.4,2.3-4.1,2.4s-3.3-0.1-4.9-0.5c-1.6-0.4-2.9-2.5-3-4.4c0-0.6,0-1.3,0-1.9
	c0-1.4,1.1-2.1,2.4-1.4c0.2,0.1,0.4,0.5,0.4,0.8c0,0.8,0,1.6,0,2.4c0.1,1.7,1.1,2.7,2.8,2.8c0.9,0,1.9,0.1,2.7-0.3
	c2.1-0.9,2.4-3.8,0.6-5.7c-1.5-1.6-3.1-3-4.6-4.6c-1-1-2.1-2.1-3-3.2c-1.8-2.2-1.8-6,0.3-7.7c1.8-1.5,4.1-1.9,6.4-1.3
	c1.2,0.3,2.5,0.5,3.3,1.6C72.2,159.7,72.4,161.1,72.4,162.5z"/>
<path class="st6" d="M157.4,175.9c0-0.2,0-0.5,0-0.7c0-1.7,0-1.6,1.7-1.6c0.7,0,1,0.2,0.9,0.9c0,0.6,0,1.1,0,1.7
	c0,2.4,1.1,3.5,3.5,3.5c0.7,0,1.5,0,2.1-0.3c2.4-0.9,2.1-4,0.6-5.6c-1.4-1.6-3.1-3-4.6-4.6c-0.9-0.9-1.9-1.8-2.7-2.8
	c-1.6-1.8-2-5-0.9-7.1c0.6-1.2,1.7-1.9,3.1-2.2c1.6-0.3,3-0.4,4.7-0.1c2.9,0.6,3.7,2.3,4,5c0.1,0.5,0,1,0,1.6
	c0.1,1.1-0.3,1.6-1.5,1.5c-1,0-1.4-0.3-1.3-1.3c0.1-0.6,0-1.1,0-1.7c0.1-1.3-0.4-2.4-1.7-2.8c-1.5-0.4-3.1-0.6-4.3,0.5
	c-1,0.9-1.2,2.2-0.7,3.4c0.4,1,1.1,2,1.9,2.8c1.8,1.8,3.7,3.6,5.6,5.3c2.8,2.5,2.9,7.9,0.7,9.3c-0.9,0.6-1.8,1.1-2.8,1.3
	c-1.9,0.4-3.8,0.3-5.6-0.6C158.1,180.4,157.4,178.8,157.4,175.9z"/>
<path class="st0" d="M135.6,126.4c0-4,0-8,0-12c0-1,0.3-1.3,1.3-1.3c5.2,0,10.4,0,15.6,0c1.1,0,1.3,0.4,1.3,1.4c0,8,0,16,0,23.9
	c0,0.2,0.1,0.4,0,0.5c-0.2,0.4-0.5,0.7-0.8,1c-0.2-0.3-0.6-0.7-0.6-1c-0.1-1.7,0-3.4,0-5.1c0-2.1,0-2.1-2.1-2.1c-3.8,0-7.7,0-11.5,0
	c-1.1,0-1.4,0.3-1.4,1.4c0,1.9,0,3.8,0,5.6c0,0.6,0,1.3-0.9,1.3c-0.8,0-0.8-0.7-0.8-1.3C135.6,134.5,135.6,130.5,135.6,126.4z
	 M137.3,122.4c0,2.2,0,4.4,0,6.6c0,0.8,0.3,1.2,1.2,1.2c4.2,0,8.3,0,12.5,0c1,0,1.4-0.4,1.4-1.4c0-4.2,0-8.5,0-12.7
	c0-1.1-0.4-1.6-1.5-1.6c-4.1,0.1-8.1,0.1-12.2,0c-1,0-1.3,0.4-1.3,1.3C137.3,118.1,137.3,120.3,137.3,122.4z"/>
<path class="st7" d="M118.3,177.4c0.4-1.6,0.8-3.2,1.1-4.8c0.8-3.4,1.5-6.7,2.2-10.1c0.3-1.3,0.6-2.6,0.8-3.9c0.3-1.4,1.1-2,2.4-1.5
	c0.2,0.1,0.5,0.7,0.5,1c-0.9,3.9-1.9,7.9-2.8,11.8c-0.6,2.6-1.1,5.3-1.7,7.9c-0.2,0.9-0.3,1.8-0.6,2.7c-0.1,0.3-0.4,0.8-0.7,0.8
	c-1,0.1-2.1,0.1-3.1,0c-0.2,0-0.5-0.5-0.6-0.8c-0.7-3.1-1.3-6.2-2-9.3c-0.7-3.1-1.4-6.1-2.2-9.1c-0.3-1.2-0.5-2.4-0.8-3.6
	c-0.1-0.6-0.4-1.4,0.6-1.5c0.8-0.1,1.7-0.3,2,1c0.5,2.3,1,4.5,1.5,6.8c0.8,3.3,1.5,6.7,2.3,10c0.2,0.9,0.4,1.7,0.7,2.5
	C118,177.4,118.1,177.4,118.3,177.4z"/>
<path class="st1" d="M176.1,167.6c0-2.9,0-5.9,0-8.9c0-1.6,0.1-1.7,1.6-1.7c1.8,0,3.6,0,5.4,0c0.9,0,1.3,0.3,1.3,1.3
	c0,0.9-0.6,1.1-1.3,1.1c-1.1,0-2.2-0.1-3.4,0c-0.3,0-0.7,0.5-0.9,0.8c-0.1,0.2-0.1,0.6-0.1,0.9c0,5,0,10.1,0,15.1
	c0,0.4,0,0.7,0.1,1.1c0.1,1.5,0.8,2.2,2,2.2c1.1,0,1.9-0.9,2-2.2c0.1-1.1,0.1-2.3,0-3.5c0-0.8,0.2-1.2,1.2-1.2
	c0.9,0,1.5,0.2,1.4,1.3c-0.1,1.7-0.1,3.5-0.4,5.2c-0.5,2.5-3.6,3.3-5.7,2.6c-1.9-0.6-3.1-1.9-3.1-4c-0.1-3.4,0-6.8,0-10.2
	C176.2,167.6,176.2,167.6,176.1,167.6z"/>
<path class="st8" d="M100,159.3c1-0.8,1.8-1.7,2.8-2.3c1.9-1.2,5.5,0.5,5.6,3.4c0,0.8,0,1.7,0.1,2.5c0.1,0.9-0.4,1.1-1.2,1.1
	c-1,0-1.4-0.2-1.3-1.3c0.1-0.6,0.1-1.3-0.1-1.9c-0.2-0.7-0.7-1.6-1.2-1.7c-0.7-0.2-1.7,0-2.3,0.5c-0.7,0.5-1.2,1.4-1.4,2.3
	c-0.3,1.2-0.4,2.4-0.4,3.7c0,4.8,0,9.6,0,14.5c0,1.1-0.2,1.5-1.4,1.5c-1.1,0-1.3-0.5-1.3-1.4c0-7.2,0-14.4,0-21.5
	c0-0.4,0.3-0.9,0.5-1.4c0.4,0.4,0.8,0.7,1.1,1.1C99.7,158.6,99.9,159,100,159.3z"/>
<path class="st9" d="M205.6,138.4c-5,0-9.9,0-14.9,0c-2.4,0-2.4,0-2.4-2.3c0-1.8,0-3.6,0-5.4c0-1.5,0.2-1.6,1.6-1.6
	c5.8,0,11.6,0,17.4,0c4.6,0,9.2,0,13.8,0c1.6,0,1.7,0.2,1.7,1.7c0,2,0,4,0,6c0,1.4-0.2,1.6-1.6,1.6c-5,0-10,0-15,0
	C206.1,138.4,205.8,138.4,205.6,138.4z M205.8,135.1c0.5-0.7,1-1.1,1-1.4c-0.1-0.4-0.6-0.7-0.9-1c-0.3,0.3-0.8,0.6-0.9,1
	C204.9,134,205.4,134.4,205.8,135.1z"/>
<path class="st9" d="M205.6,117.1c-5.2,0-10.4,0-15.6,0c-1.6,0-1.6-0.1-1.6-1.6c0-2.1,0-4.2,0-6.2c0-1,0.4-1.4,1.4-1.3
	c0.2,0,0.5,0,0.7,0c10.1,0,20.3,0,30.4,0c2,0,2,0,2,2c0,1.9,0,3.8,0,5.7c0,1.1-0.4,1.5-1.5,1.5C216.1,117.1,210.9,117.1,205.6,117.1
	z M205.4,114.1c0.5-0.7,0.9-1.1,0.9-1.4c0-0.4-0.5-0.7-0.9-1c-0.3,0.3-0.9,0.6-0.9,0.9C204.5,112.9,204.9,113.4,205.4,114.1z"/>
<path class="st9" d="M205.6,127.6c-5.2,0-10.5,0-15.7,0c-1.1,0-1.6-0.3-1.5-1.5c0.1-2,0-4.1,0-6.1c0-1.4,0.1-1.5,1.6-1.5
	c8.4,0,16.7,0,25.1,0c2.2,0,4.3,0,6.5,0c1,0,1.4,0.3,1.4,1.4c-0.1,2.1-0.1,4.2,0,6.3c0,1.1-0.4,1.4-1.4,1.4
	C216.2,127.6,210.9,127.6,205.6,127.6z M213,123c0,3.1-0.4,2.6,2.6,2.6c0.4,0,0.8-0.5,1.2-0.8c-0.4-0.2-0.7-0.6-1.1-0.6
	c-0.9,0-1.3-0.4-1.2-1.3c0-0.5,0.1-1.1-0.1-1.5c-0.1-0.2-0.5-0.6-0.7-0.6c-0.2,0-0.6,0.3-0.7,0.6C212.9,121.8,213,122.4,213,123z
	 M205.9,120.8c-1.1-0.4-1.5,0-1.5,1c0,0.5,0,1,0,1.4c0,2.7-0.4,2.3,2.5,2.4c0.6,0,1.4,0.1,1.4-0.8c0-0.2-0.8-0.6-1.2-0.6
	c-0.8-0.1-1.2-0.4-1.1-1.2C205.9,122.3,205.9,121.6,205.9,120.8z M195.8,123.1c0,2.6,0,2.6,2.6,2.5c0,0,0.1,0,0.1,0
	c0.3-0.2,0.9-0.4,0.9-0.7c0.2-0.7-0.4-0.8-0.9-0.7c-1,0-1.3-0.5-1.3-1.4c0-0.4,0.1-0.9-0.1-1.3c-0.1-0.3-0.5-0.5-0.7-0.8
	c-0.2,0.2-0.6,0.5-0.6,0.7C195.7,122,195.8,122.5,195.8,123.1z"/>
<path class="st9" d="M205.7,106.4c-5.2,0-10.5,0-15.7,0c-1.6,0-1.6-0.1-1.6-1.6c0-2.1,0-4.2,0-6.3c0-0.9,0.4-1.3,1.3-1.3
	c10.7,0,21.4,0,32,0c0.9,0,1.3,0.4,1.3,1.3c0,2.2-0.1,4.3,0,6.5c0,1.1-0.4,1.5-1.5,1.4C216.2,106.3,211,106.4,205.7,106.4z
	 M212.9,104.1c1.1,0,2.1,0.1,3,0c0.3,0,0.6-0.4,0.9-0.6c-0.3-0.3-0.6-0.9-0.8-0.9c-1.5,0-1.7-0.8-1.6-2c0-0.2,0.1-0.5,0-0.7
	c-0.1-0.2-0.5-0.6-0.7-0.6c-0.3,0-0.8,0.4-0.8,0.6C212.9,101.2,212.9,102.6,212.9,104.1z M205.9,98.9c-0.7,0.3-1.4,0.5-1.4,0.7
	c-0.1,1.5-0.1,3-0.1,4.5c1.2,0,2.1,0.1,3.1,0c0.3,0,0.7-0.4,0.8-0.6c0-0.3-0.3-0.7-0.6-0.9c-0.2-0.2-0.6-0.2-0.9-0.2
	c-0.7,0-1-0.3-0.9-1.1C205.9,100.7,205.9,100,205.9,98.9z M199.4,104c0.2-0.8,0.3-1.5-0.7-1.6c-1.3,0-1.6-0.7-1.4-1.8
	c0-0.3,0.1-0.7-0.1-0.9c-0.1-0.2-0.4-0.5-0.6-0.5s-0.7,0.3-0.7,0.5c0,1.4,0,2.8,0.1,4.2c1,0.1,2,0.2,3,0.2
	C199,104.1,199.1,104,199.4,104z"/>
<path class="st9" d="M169.8,108.9c0,6.8,0,13.7,0,20.5c0,1.7-0.1,1.8-1.8,1.8c-2.6,0-5.1,0-7.7,0c-1,0-1.5-0.3-1.5-1.4
	c0-10.7,0-21.3,0.1-32c0-0.6,0.4-1.4,0.8-1.9c2.8-2.9,5.7-5.8,8.6-8.6c0.3-0.3,0.7-0.4,1-0.6c0.1,0.4,0.3,0.8,0.3,1.2
	C169.8,94.9,169.8,101.9,169.8,108.9z M167.1,112.7c-0.3-0.6-0.6-1-0.8-1.5c-0.2,0.5-0.5,1-0.6,1.4c0,0.5,0.3,1,0.5,1.5
	C166.6,113.7,166.8,113.2,167.1,112.7z"/>
<path class="st9" d="M171.8,86.6c0.7,0.7,1.5,1.4,2.2,2.1c2.5,2.5,5,5,7.5,7.5c0.3,0.3,0.5,0.9,0.5,1.4c0,10.8,0,21.6,0,32.4
	c0,0.9-0.4,1.1-1.2,1.1c-2.6,0-5.3,0-7.9,0c-1.5,0-1.6-0.1-1.6-1.6c0-4.9,0-9.8,0-14.7c0-8.8,0-17.6,0-26.3c0-0.5,0.1-1.1,0.1-1.6
	C171.5,86.8,171.6,86.7,171.8,86.6z M174.3,98.2c0,1.2,0,2.2,0,3.2c0,3-0.2,2.6,2.5,2.6c0.7,0,1.8,0.3,1.8-0.9
	c0-1.2-1.1-0.8-1.7-0.8c-0.8,0-1.1-0.3-1.1-1.1c0.1-1,0-2,0-3C175.3,98.2,174.9,98.2,174.3,98.2z M174.4,112L174.4,112
	c0,0.7-0.1,1.4,0,2.1c0,0.3,0.4,0.8,0.6,0.8c1,0.1,2,0.1,3,0c0.3,0,0.5-0.5,0.7-0.8c-0.3-0.2-0.5-0.5-0.8-0.7
	c-0.2-0.1-0.6-0.1-0.8-0.1c-0.9,0-1.3-0.4-1.2-1.3c0.1-0.8,0.1-1.5,0-2.3c0-0.3-0.4-0.7-0.7-0.7c-0.3,0-0.7,0.4-0.7,0.6
	C174.3,110.6,174.4,111.3,174.4,112z M176.5,126C176.5,126,176.5,126,176.5,126c0.5,0,1,0.1,1.4-0.1c0.3-0.1,0.5-0.5,0.8-0.7
	c-0.3-0.2-0.5-0.6-0.8-0.6c-2-0.3-2-0.3-2-2.4c0-0.2,0.1-0.5,0-0.7c-0.2-0.4-0.5-0.8-0.7-1.1c-0.3,0.4-0.7,0.7-0.8,1.1
	c-0.1,1.1,0,2.2-0.1,3.3c-0.1,1,0.4,1.4,1.4,1.3C175.9,126,176.2,126,176.5,126z"/>
<path class="st9" d="M170.6,132.6c3.4,0,6.7,0,10.1,0c1.1,0,1.4,0.4,1.4,1.4c-0.1,1.1,0,2.2,0,3.4c0,0.8-0.3,1.1-1.1,1.1
	c-0.9,0-1.8,0-2.6,0c-5.8,0-11.6,0-17.4,0c-1.9,0-2-0.1-2-2c0-0.8,0-1.5,0-2.3c-0.1-1.1,0.4-1.6,1.6-1.6
	C163.8,132.6,167.2,132.6,170.6,132.6z M170.3,136L170.3,136c0.3,0,0.6,0.1,0.8,0c0.3-0.1,0.5-0.3,0.8-0.5c-0.2-0.2-0.5-0.5-0.8-0.5
	c-0.5-0.1-1-0.1-1.5,0c-0.3,0.1-0.5,0.4-0.7,0.6c0.2,0.2,0.4,0.4,0.7,0.5C169.8,136.1,170.1,136,170.3,136z"/>
<path class="st10" d="M119.9,117.8c0-6.4,0-12.8,0-19.1c0-1.2,0.3-1.5,1.5-1.5c2.6,0.1,5.1,0.1,7.7,0c1.1,0,1.5,0.3,1.5,1.4
	c0,12.8,0,25.6,0,38.4c0,1-0.5,1.4-1.4,1.4c-2.8,0-5.5,0-8.3,0c-1,0-1-0.6-1-1.4C119.9,130.6,119.9,124.2,119.9,117.8z M122.8,119.1
	c0.2,0,0.3,0,0.4,0c0.2-0.3,0.7-0.7,0.6-1c-0.1-0.4-0.5-0.7-0.8-1c-0.3,0.3-0.9,0.6-0.9,0.9C122.2,118.3,122.6,118.7,122.8,119.1z"
	/>
<path class="st10" d="M118,117.8c0,6.3,0,12.7,0,19c0,1.2-0.3,1.6-1.6,1.6c-2.4-0.1-4.9,0-7.3,0c-1.7,0-1.8-0.1-1.8-1.7
	c0-12.6,0-25.3,0-37.9c0-1.2,0.3-1.6,1.6-1.6c2.6,0.1,5.2,0.1,7.8,0c1.1,0,1.3,0.4,1.3,1.4C118,105,118,111.4,118,117.8z
	 M114.8,109.1c0.4-1.2,0.1-1.6-1-1.5c-1.2,0.2-1.6-0.4-1.5-1.5c0-0.7,0.1-1.4-0.1-2c-0.1-0.3-0.6-0.6-0.8-0.9
	c-0.3,0.3-0.8,0.6-0.8,0.9c-0.1,1.3,0,2.7,0,4.1c0,0.6,0.3,0.9,1,0.9C112.6,109.1,113.6,109.1,114.8,109.1z M110.5,128.3
	c0.1,3.1-0.4,2.8,2.9,2.9c0.3,0,0.6,0.1,0.8,0c0.3-0.2,0.6-0.5,0.7-0.8c0-0.2-0.4-0.6-0.7-0.6c-1.9-0.2-1.9-0.2-1.9-2.1
	c0-0.2,0-0.5,0-0.7c0-0.6,0-1.1-0.8-1.1c-0.8,0-0.9,0.4-0.9,1.1C110.5,127.2,110.5,127.7,110.5,128.3z M112.9,120.1
	c0.5,0,1,0.1,1.6,0c0.2,0,0.4-0.3,0.5-0.5c0.1-0.2,0-0.6-0.2-0.7c-0.2-0.2-0.6-0.2-0.9-0.1c-1.2,0.2-1.6-0.4-1.6-1.6
	c0-0.6,0.1-1.1,0-1.7c-0.1-0.3-0.5-0.6-0.8-0.9c-0.3,0.3-0.8,0.6-0.8,0.9c-0.1,0.8-0.1,1.6-0.1,2.4
	C110.5,120.1,110.5,120.1,112.9,120.1z"/>
<path class="st10" d="M77,110.1c0-8.8,0-17.6,0-26.5c0-2,0.2-2.1,1.8-1.1c4.6,2.8,9.2,5.7,13.8,8.5c2.1,1.2,4.1,2.4,6.2,3.6
	c0.8,0.4,1.2,1,1.2,2c0,13.4,0,26.9,0,40.3c0,1.1-0.4,1.5-1.4,1.5c-6.7,0-13.3,0-20,0c-1.4,0-1.6-0.2-1.6-1.6
	C77,127.9,77,119,77,110.1z M84.8,97.7c0-1.2,0.1-2.1,0-3.1c0-0.3-0.5-0.6-0.8-1c-0.3,0.3-0.7,0.6-0.8,1c-0.1,1.1,0,2.3-0.1,3.4
	c0,1.1,0.4,1.5,1.5,1.4c0.6-0.1,1.1,0,1.7,0c1.4,0,1.5-0.3,1.2-1.8C86.7,97.7,85.9,97.7,84.8,97.7z M85.4,110.5c0.4,0,0.7,0,1.1,0
	c0.6,0,1.4,0,1.2-0.8c-0.1-0.4-0.8-0.7-1.2-0.9c-0.1-0.1-0.4,0-0.6,0c-0.8,0.1-1.2-0.2-1.1-1.1c0.1-0.7,0.1-1.4,0-2
	c-0.1-0.3-0.5-0.6-0.8-0.9c-0.3,0.3-0.7,0.5-0.7,0.8c-0.1,1.3,0,2.6,0,3.9c0,0.8,0.4,1.2,1.2,1.1C84.8,110.5,85.1,110.5,85.4,110.5z
	 M83.2,118.6C83.2,118.6,83.2,118.6,83.2,118.6c0,0.7,0,1.4,0.1,2c0.1,0.3,0.4,0.8,0.6,0.8c1.1,0.1,2.2,0.1,3.2,0
	c0.2,0,0.5-0.5,0.6-0.9c0-0.1-0.4-0.4-0.6-0.5c-0.3-0.1-0.6-0.1-0.9,0c-1,0-1.4-0.4-1.3-1.4c0-0.6,0.1-1.1,0-1.7
	c-0.1-0.5-0.5-0.9-0.8-1.4c-0.3,0.4-0.6,0.8-0.7,1.3C83.1,117.5,83.2,118.1,83.2,118.6z M87.6,130.2c-0.6,0-1.1,0-1.7,0
	c-0.8,0.1-1.2-0.2-1.1-1.1c0.1-0.7,0.1-1.4,0-2.1c-0.1-0.3-0.5-0.6-0.7-0.8c-0.3,0.3-0.7,0.5-0.8,0.8c-0.1,0.5-0.1,1-0.1,1.5
	c0,3.8-0.4,3.2,3.4,3.3C87.6,131.8,87.9,131.3,87.6,130.2z M95.5,115.4c0.6,0.5,1,1.1,1.3,1.1c0.4,0,0.7-0.6,1-0.9
	c-0.3-0.3-0.6-0.8-1-0.9C96.5,114.6,96.1,115,95.5,115.4z"/>
<path class="st9" d="M137.3,122.4c0-2.2,0-4.4,0-6.6c0-0.9,0.3-1.3,1.3-1.3c4.1,0.1,8.1,0.1,12.2,0c1.2,0,1.6,0.4,1.5,1.6
	c0,4.2,0,8.4,0,12.7c0,1-0.4,1.4-1.4,1.4c-4.2,0-8.3,0-12.5,0c-0.9,0-1.2-0.4-1.2-1.2C137.3,126.8,137.3,124.6,137.3,122.4z
	 M143.7,125.8c0.1-0.1,0.2-0.2,0.4-0.4c-0.1-0.7-0.1-1.6-0.5-2.1c-0.2-0.3-1.4-0.2-1.7,0.1c-0.3,0.3-0.4,1.5-0.2,1.7
	C142.1,125.6,142.9,125.6,143.7,125.8z M144.1,119.9c-0.1-0.1-0.2-0.2-0.4-0.4c-0.7,0.2-1.5,0.2-2.1,0.5c-0.2,0.1-0.1,1.2,0.2,1.5
	c0.4,0.3,1.5,0.6,1.7,0.3C143.9,121.4,143.9,120.6,144.1,119.9z M147.5,124.6c0-0.8,0-1.4-1-1.4c-1,0-1.1,0.5-1.1,1.3
	c0,0.7,0,1.2,1,1.2C147.2,125.7,147.6,125.4,147.5,124.6z M146.4,119.7c-0.8-0.2-1.1,0.2-1.1,1c0,0.8,0.2,1.3,1.1,1.3
	c0.9,0,1-0.5,1-1.2C147.6,120,147.3,119.5,146.4,119.7z"/>
<path class="st0" d="M205.8,135.1c-0.4-0.7-0.9-1.1-0.9-1.4c0.1-0.4,0.6-0.7,0.9-1c0.3,0.3,0.8,0.6,0.9,1
	C206.8,134,206.3,134.4,205.8,135.1z"/>
<path class="st0" d="M205.4,114.1c-0.4-0.7-0.9-1.2-0.9-1.5c0-0.3,0.6-0.6,0.9-0.9c0.3,0.3,0.8,0.7,0.9,1
	C206.3,113,205.8,113.4,205.4,114.1z"/>
<path class="st0" d="M213,123c0-0.6-0.1-1.1,0-1.7c0.1-0.2,0.4-0.6,0.7-0.6c0.3,0,0.6,0.3,0.7,0.6c0.1,0.5,0.1,1,0.1,1.5
	c0,0.9,0.3,1.3,1.2,1.3c0.4,0,0.8,0.4,1.1,0.6c-0.4,0.3-0.8,0.8-1.2,0.8C212.6,125.6,213,126.1,213,123z"/>
<path class="st0" d="M205.9,120.8c0,0.8,0,1.5,0,2.2c0,0.8,0.3,1.1,1.1,1.2c0.4,0,1.2,0.4,1.2,0.6c0.1,1-0.8,0.8-1.4,0.8
	c-2.8,0-2.4,0.3-2.5-2.4c0-0.5,0-1,0-1.4C204.3,120.8,204.7,120.5,205.9,120.8z"/>
<path class="st0" d="M195.8,123.1c0-0.6-0.1-1.1,0-1.7c0.1-0.3,0.4-0.5,0.6-0.7c0.3,0.2,0.6,0.4,0.7,0.8c0.1,0.4,0.1,0.9,0.1,1.3
	c0,0.9,0.3,1.5,1.3,1.4c0.5,0,1.1,0.1,0.9,0.7c-0.1,0.3-0.6,0.5-0.9,0.7c0,0-0.1,0-0.1,0C195.7,125.7,195.7,125.7,195.8,123.1z"/>
<path class="st0" d="M212.9,104.1c0-1.5,0-2.9,0-4.3c0-0.2,0.5-0.6,0.8-0.6c0.2,0,0.5,0.3,0.7,0.6c0.1,0.2,0.1,0.5,0,0.7
	c-0.1,1.2,0.1,2,1.6,2c0.3,0,0.6,0.6,0.8,0.9c-0.3,0.2-0.6,0.6-0.9,0.6C215,104.1,214.1,104.1,212.9,104.1z"/>
<path class="st0" d="M205.9,98.9c0,1.1,0,1.8,0,2.4c-0.1,0.7,0.2,1,0.9,1.1c0.3,0,0.7,0,0.9,0.2c0.3,0.2,0.6,0.6,0.6,0.9
	c0,0.2-0.5,0.6-0.8,0.6c-0.9,0.1-1.9,0-3.1,0c0-1.5,0-3,0.1-4.5C204.5,99.4,205.2,99.2,205.9,98.9z"/>
<path class="st0" d="M199.4,104c-0.2,0-0.3,0.1-0.4,0.1c-1-0.1-2-0.2-3-0.2c0-1.4-0.1-2.8-0.1-4.2c0-0.2,0.4-0.5,0.7-0.5
	s0.6,0.3,0.6,0.5c0.1,0.3,0.1,0.6,0.1,0.9c-0.1,1.1,0.2,1.8,1.4,1.8C199.7,102.5,199.5,103.2,199.4,104z"/>
<path class="st0" d="M167.1,112.7c-0.3,0.6-0.6,1-0.9,1.4c-0.2-0.5-0.5-1-0.5-1.5c0-0.5,0.4-1,0.6-1.4
	C166.6,111.6,166.8,112.1,167.1,112.7z"/>
<path class="st0" d="M174.3,98.2c0.6,0,1,0,1.5,0c0,1,0,2,0,3c-0.1,0.8,0.3,1.1,1.1,1.1c0.7,0,1.8-0.3,1.7,0.8
	c0,1.2-1.1,0.9-1.8,0.9c-2.7,0-2.5,0.4-2.5-2.6C174.3,100.4,174.3,99.4,174.3,98.2z"/>
<path class="st0" d="M174.4,112c0-0.7-0.1-1.4,0-2.1c0-0.3,0.5-0.6,0.7-0.6c0.2,0,0.7,0.4,0.7,0.7c0.1,0.7,0.1,1.5,0,2.3
	c-0.1,0.9,0.3,1.3,1.2,1.3c0.3,0,0.6-0.1,0.8,0.1c0.3,0.2,0.5,0.4,0.8,0.7c-0.2,0.3-0.5,0.8-0.7,0.8c-1,0.1-2,0.1-3,0
	c-0.2,0-0.6-0.5-0.6-0.8C174.3,113.5,174.3,112.7,174.4,112L174.4,112z"/>
<path class="st0" d="M176.5,126c-0.3,0-0.6,0-0.8,0c-0.9,0.1-1.4-0.3-1.4-1.3c0.1-1.1-0.1-2.2,0.1-3.3c0-0.4,0.5-0.7,0.8-1.1
	c0.2,0.4,0.5,0.7,0.7,1.1c0.1,0.2,0,0.5,0,0.7c0,2.1,0,2.1,2,2.4c0.3,0.1,0.6,0.4,0.8,0.6c-0.2,0.3-0.5,0.7-0.8,0.7
	C177.5,126.1,177,126,176.5,126C176.5,126,176.5,126,176.5,126z"/>
<path class="st0" d="M170.3,136c-0.2,0-0.5,0.1-0.7,0c-0.2-0.1-0.5-0.3-0.7-0.5c0.2-0.2,0.4-0.5,0.7-0.6c0.5-0.1,1-0.1,1.5,0
	c0.3,0.1,0.5,0.4,0.8,0.5c-0.3,0.2-0.5,0.4-0.8,0.5C170.9,136.1,170.6,136,170.3,136L170.3,136z"/>
<path class="st0" d="M122.8,119.1c-0.2-0.4-0.7-0.8-0.7-1.2c0-0.3,0.6-0.6,0.9-0.9c0.3,0.3,0.8,0.6,0.8,1c0.1,0.3-0.4,0.7-0.6,1
	C123.1,119.1,123,119.1,122.8,119.1z"/>
<path class="st0" d="M114.8,109.1c-1.1,0-2.2,0-3.3,0c-0.7,0-1-0.3-1-0.9c0-1.3-0.1-2.7,0-4.1c0-0.3,0.5-0.6,0.8-0.9
	c0.3,0.3,0.8,0.6,0.8,0.9c0.1,0.7,0.1,1.3,0.1,2c0,1.1,0.3,1.7,1.5,1.5C114.8,107.5,115.2,108,114.8,109.1z"/>
<path class="st0" d="M110.5,128.3c0-0.5,0-1,0-1.6c0-0.6,0.1-1.1,0.9-1.1c0.8,0,0.8,0.5,0.8,1.1c0,0.2,0,0.5,0,0.7
	c0,1.9,0,1.9,1.9,2.1c0.3,0,0.8,0.5,0.7,0.6c-0.1,0.3-0.4,0.6-0.7,0.8c-0.2,0.1-0.5,0-0.8,0C110.1,131.1,110.6,131.4,110.5,128.3z"
	/>
<path class="st0" d="M112.9,120.1c-2.3,0-2.3,0-2.3-2.3c0-0.8-0.1-1.6,0.1-2.4c0.1-0.3,0.5-0.6,0.8-0.9c0.3,0.3,0.7,0.6,0.8,0.9
	c0.1,0.5,0.1,1.1,0,1.7c-0.1,1.1,0.3,1.8,1.6,1.6c0.3,0,0.7,0,0.9,0.1c0.2,0.1,0.2,0.5,0.2,0.7c-0.1,0.2-0.3,0.5-0.5,0.5
	C113.9,120.1,113.4,120.1,112.9,120.1z"/>
<path class="st0" d="M84.8,97.7c1.1,0,1.9,0,2.7,0c0.4,1.5,0.2,1.8-1.2,1.8c-0.6,0-1.1-0.1-1.7,0c-1.1,0.1-1.5-0.3-1.5-1.4
	c0-1.2-0.1-2.3,0.1-3.4c0-0.3,0.5-0.6,0.8-1c0.3,0.3,0.7,0.6,0.8,1C84.9,95.6,84.8,96.5,84.8,97.7z"/>
<path class="st0" d="M85.4,110.5c-0.3,0-0.6,0-0.9,0c-0.8,0.1-1.2-0.3-1.2-1.1c0-1.3-0.1-2.6,0-3.9c0-0.3,0.5-0.6,0.7-0.8
	c0.3,0.3,0.7,0.6,0.8,0.9c0.1,0.7,0.1,1.3,0,2c-0.1,0.8,0.3,1.2,1.1,1.1c0.2,0,0.4-0.1,0.6,0c0.4,0.3,1.1,0.6,1.2,0.9
	c0.2,0.8-0.6,0.8-1.2,0.8C86.1,110.5,85.8,110.5,85.4,110.5z"/>
<path class="st0" d="M83.2,118.6c0-0.6-0.1-1.1,0-1.7c0.1-0.4,0.5-0.8,0.7-1.3c0.3,0.4,0.7,0.9,0.8,1.4c0.1,0.5,0.1,1.1,0,1.7
	c-0.1,1,0.4,1.4,1.3,1.4c0.3,0,0.7-0.1,0.9,0c0.2,0.1,0.7,0.4,0.6,0.5c-0.1,0.3-0.3,0.8-0.6,0.9c-1.1,0.1-2.2,0.1-3.2,0
	c-0.2,0-0.6-0.5-0.6-0.8C83.2,120,83.2,119.3,83.2,118.6C83.2,118.6,83.2,118.6,83.2,118.6z"/>
<path class="st0" d="M87.6,130.2c0.3,1.1,0,1.6-1,1.5c-3.9-0.1-3.4,0.6-3.4-3.3c0-0.5-0.1-1.1,0.1-1.5c0.1-0.3,0.5-0.5,0.8-0.8
	c0.3,0.3,0.7,0.5,0.7,0.8c0.1,0.7,0.1,1.4,0,2.1c-0.1,0.9,0.3,1.1,1.1,1.1C86.5,130.2,87,130.2,87.6,130.2z"/>
<path class="st0" d="M95.5,115.4c0.6-0.4,1-0.8,1.3-0.7c0.4,0.1,0.7,0.6,1,0.9c-0.3,0.3-0.7,0.9-1,0.9
	C96.5,116.5,96.1,115.9,95.5,115.4z"/>
<path class="st0" d="M143.7,125.8c-0.7-0.2-1.6-0.2-2.1-0.6c-0.3-0.2-0.2-1.4,0.2-1.7c0.4-0.3,1.5-0.4,1.7-0.1
	c0.4,0.5,0.4,1.4,0.5,2.1C143.9,125.6,143.8,125.7,143.7,125.8z"/>
<path class="st0" d="M144.1,119.9c-0.2,0.7-0.2,1.5-0.6,1.9c-0.2,0.2-1.3,0-1.7-0.3c-0.3-0.2-0.3-1.4-0.2-1.5
	c0.6-0.3,1.4-0.4,2.1-0.5C143.8,119.7,143.9,119.8,144.1,119.9z"/>
<path class="st0" d="M147.5,124.6c0.1,0.8-0.3,1.2-1.2,1.1c-0.9,0-1-0.6-1-1.2c0-0.8,0.1-1.3,1.1-1.3
	C147.5,123.2,147.5,123.8,147.5,124.6z"/>
<path class="st10" d="M146.4,119.7c0.9-0.2,1.1,0.3,1.1,1.1c0,0.7-0.1,1.2-1,1.2c-0.9,0-1.1-0.5-1.1-1.3
	C145.3,119.9,145.6,119.5,146.4,119.7z"/>
<text transform="matrix(1 0 0 1 75.523 201.5494)" class="st11 st12 st13">VISION    CHOIX   DÉCISION </text>
</svg>
